<svg width="9" height="6" viewBox="0 0 9 6" fill="none" xmlns="http://www.w3.org/2000/svg">
<path d="M4.16797 5.69141L0.378906 1.90234C0.28776 1.8112 0.242188 1.70052 0.242188 1.57031C0.242188 1.4401 0.28776 1.32943 0.378906 1.23828L0.808594 0.808594C0.89974 0.717448 1.01042 0.671875 1.14062 0.671875C1.27083 0.658854 1.38151 0.697917 1.47266 0.789062L4.5 3.81641L7.52734 0.789062C7.61849 0.697917 7.72917 0.658854 7.85938 0.671875C7.98958 0.671875 8.10026 0.717448 8.19141 0.808594L8.62109 1.23828C8.71224 1.32943 8.75781 1.4401 8.75781 1.57031C8.75781 1.70052 8.71224 1.8112 8.62109 1.90234L4.83203 5.69141C4.74089 5.79557 4.63021 5.84766 4.5 5.84766C4.36979 5.84766 4.25911 5.79557 4.16797 5.69141Z" fill="black"/>
</svg>
