<svg width="18" height="19" viewBox="0 0 18 19" fill="none" xmlns="http://www.w3.org/2000/svg">
<path d="M1.61719 10.7891L0.757812 9.92969C0.575521 9.7474 0.484375 9.52604 0.484375 9.26562C0.484375 9.00521 0.575521 8.78385 0.757812 8.60156L8.33594 1.02344C8.51823 0.841146 8.73958 0.75 9 0.75C9.26042 0.75 9.48177 0.841146 9.66406 1.02344L17.2422 8.60156C17.4245 8.78385 17.5156 9.00521 17.5156 9.26562C17.5156 9.52604 17.4245 9.7474 17.2422 9.92969L16.3828 10.7891C16.2005 10.9974 15.9792 11.1016 15.7188 11.1016C15.4583 11.0755 15.237 10.9714 15.0547 10.7891L10.5625 6.10156V17.3125C10.5625 17.5729 10.4714 17.7943 10.2891 17.9766C10.1068 18.1589 9.88542 18.25 9.625 18.25H8.375C8.11458 18.25 7.89323 18.1589 7.71094 17.9766C7.52865 17.7943 7.4375 17.5729 7.4375 17.3125V6.10156L2.94531 10.7891C2.76302 10.9714 2.54167 11.0755 2.28125 11.1016C2.02083 11.1016 1.79948 10.9974 1.61719 10.7891Z" fill="white"/>
</svg>
