<svg width="20" height="20" viewBox="0 0 20 20" fill="none" xmlns="http://www.w3.org/2000/svg">
<path d="M19.8032 16.9156L15.8231 12.9354L18.6626 11.2952C18.8845 11.167 19.0136 10.9235 18.9951 10.6679C18.9767 10.4123 18.814 10.1897 18.5759 10.0948L5.91383 5.044C5.66555 4.94487 5.38218 5.00326 5.19316 5.19221C5.00413 5.38131 4.94575 5.66467 5.04481 5.91289L10.0949 18.5764C10.1899 18.8144 10.4124 18.9772 10.668 18.9956C10.9237 19.0142 11.1672 18.885 11.2954 18.663L12.9353 15.8236L16.9152 19.8039C17.0406 19.9294 17.2108 19.9998 17.3882 19.9998C17.5655 19.9998 17.7356 19.9294 17.861 19.8039L19.8032 17.8615C20.0644 17.6003 20.0644 17.1769 19.8032 16.9156ZM17.3882 18.3852L13.265 14.2616C13.1387 14.1353 12.9682 14.0657 12.7921 14.0657C12.7631 14.0657 12.7339 14.0676 12.7049 14.0714C12.4986 14.0985 12.3168 14.22 12.2129 14.4001L10.8268 16.8002L6.86386 6.86326L16.7998 10.8267L14.3995 12.2131C14.2194 12.317 14.0979 12.4988 14.0709 12.7051C14.0437 12.9111 14.114 13.1181 14.261 13.2652L18.3844 17.3888L17.3882 18.3852Z" fill="white"/>
<path d="M2.93683 1.98995C2.67555 1.72894 2.25225 1.72894 1.99083 1.98995C1.72962 2.25123 1.72962 2.67466 1.99083 2.93594L3.47696 4.42206C3.60753 4.55257 3.77878 4.61796 3.94996 4.61796C4.12107 4.61796 4.29218 4.55257 4.42289 4.42206C4.68403 4.16085 4.68403 3.73735 4.42289 3.47614L2.93683 1.98995Z" fill="white"/>
<path d="M3.44044 6.61382C3.44044 6.24446 3.14091 5.94507 2.77155 5.94507H0.669865C0.300573 5.94507 0.000976562 6.24439 0.000976562 6.61382C0.000976562 6.98312 0.300505 7.28264 0.669865 7.28264H2.77155C3.14091 7.28258 3.44044 6.98312 3.44044 6.61382Z" fill="white"/>
<path d="M3.1694 8.67828L1.68314 10.1646C1.42186 10.4256 1.42186 10.8491 1.68314 11.1103C1.81371 11.2409 1.98476 11.3062 2.15607 11.3062C2.32718 11.3062 2.49829 11.2409 2.62887 11.1103L4.1152 9.62415C4.37641 9.363 4.37641 8.93943 4.1152 8.67828C3.85412 8.41714 3.43068 8.41714 3.1694 8.67828Z" fill="white"/>
<path d="M6.61431 3.4396C6.9836 3.4396 7.28313 3.14007 7.28313 2.77071V0.668822C7.28313 0.299529 6.98367 0 6.61431 0C6.24495 0 5.94556 0.299461 5.94556 0.668822V2.77077C5.94556 3.14007 6.24488 3.4396 6.61431 3.4396Z" fill="white"/>
<path d="M9.15119 4.31005C9.32251 4.31005 9.49362 4.24487 9.62419 4.11423L11.1103 2.6281C11.3715 2.36688 11.3715 1.94338 11.1103 1.68224C10.8491 1.42103 10.4255 1.42103 10.1645 1.68224L8.67833 3.16837C8.41712 3.42951 8.41712 3.85308 8.67833 4.11423C8.8089 4.24487 8.98008 4.31005 9.15119 4.31005Z" fill="white"/>
</svg>
