<svg width="12" height="20" viewBox="0 0 12 20" fill="none" xmlns="http://www.w3.org/2000/svg">
<path d="M10.2074 0H1.79259C0.987256 0 0.337158 0.653014 0.337158 1.45689V18.5446C0.337158 19.3477 0.987256 20 1.79259 20H10.2074C11.0113 20 11.6629 19.3477 11.6629 18.5446V1.45689C11.6629 0.653014 11.0113 0 10.2074 0ZM3.92363 0.884775H8.07785C8.1828 0.884775 8.26807 1.04147 8.26807 1.23533C8.26807 1.4292 8.1828 1.58662 8.07785 1.58662H3.92363C3.81795 1.58662 3.73414 1.4292 3.73414 1.23533C3.73414 1.04147 3.81795 0.884775 3.92363 0.884775ZM6.00074 18.5621C5.48839 18.5621 5.07151 18.1452 5.07151 17.6321C5.07151 17.119 5.48839 16.7036 6.00074 16.7036C6.51164 16.7036 6.92851 17.119 6.92851 17.6321C6.92851 18.1452 6.51164 18.5621 6.00074 18.5621ZM10.5726 15.3779H1.42819V2.45828H10.5726V15.3779Z" fill="white"/>
</svg>
