<svg width="20" height="12" viewBox="0 0 20 12" fill="none" xmlns="http://www.w3.org/2000/svg">
<path fill-rule="evenodd" clip-rule="evenodd" d="M9.78521 11.3619H10.9807C10.9807 11.3619 11.3418 11.3223 11.5262 11.1235C11.6959 10.9411 11.6904 10.5984 11.6904 10.5984C11.6904 10.5984 11.6671 8.99431 12.4116 8.75809C13.1455 8.52541 14.0879 10.3084 15.0868 10.994C15.8421 11.5129 16.4161 11.3991 16.4161 11.3991L19.087 11.3619C19.087 11.3619 20.4842 11.2758 19.8217 10.1773C19.7674 10.0874 19.4359 9.36466 17.8359 7.87948C16.1612 6.32506 16.3854 6.57648 18.4028 3.88768C19.6314 2.25018 20.1226 1.25047 19.9692 0.822292C19.8228 0.414479 18.9192 0.52227 18.9192 0.52227L15.9119 0.541004C15.9119 0.541004 15.689 0.510594 15.5237 0.609425C15.3621 0.706356 15.2581 0.932256 15.2581 0.932256C15.2581 0.932256 14.7822 2.19941 14.1474 3.27705C12.8082 5.55097 12.2728 5.67098 12.054 5.5298C11.5449 5.20072 11.672 4.2078 11.672 3.5024C11.672 1.2988 12.0062 0.379997 11.0211 0.142151C10.6942 0.0631408 10.4537 0.0110102 9.61769 0.0025933C8.54467 -0.00853876 7.63645 0.0058511 7.12221 0.257816C6.7801 0.42534 6.51619 0.798671 6.67692 0.82012C6.87567 0.846729 7.32584 0.941487 7.5645 1.26649C7.87267 1.68571 7.86181 2.62732 7.86181 2.62732C7.86181 2.62732 8.03884 5.22136 7.44829 5.54364C7.04292 5.76466 6.48686 5.3134 5.29302 3.25044C4.6813 2.19371 4.21945 1.02566 4.21945 1.02566C4.21945 1.02566 4.1304 0.807359 3.97156 0.690608C3.77879 0.549149 3.50944 0.504079 3.50944 0.504079L0.65176 0.522813C0.65176 0.522813 0.222768 0.53476 0.0652904 0.72129C-0.0748108 0.887185 0.0541582 1.23038 0.0541582 1.23038C0.0541582 1.23038 2.29143 6.46462 4.82466 9.10237C7.14746 11.5207 9.78521 11.3619 9.78521 11.3619Z" fill="white"/>
</svg>
