<svg width="35" height="35" viewBox="0 0 35 35" fill="none" xmlns="http://www.w3.org/2000/svg">
<g clip-path="url(#clip0)">
<path d="M0 17.5C0 7.8354 7.8354 0 17.5 0C27.1646 0 35 7.8354 35 17.5C35 27.1646 27.1646 35 17.5 35C7.8354 35 0 27.1646 0 17.5Z" fill="white"/>
<path d="M17.5 14.4164C15.7741 14.4164 14.3688 15.821 14.3688 17.5468C14.3688 19.2735 15.7741 20.6784 17.5 20.6784C19.2266 20.6784 20.6308 19.2735 20.6308 17.5468C20.6308 15.8214 19.2262 14.4164 17.5 14.4164Z" fill="#6A453B"/>
<path d="M17.5 14.4164C15.7741 14.4164 14.3688 15.821 14.3688 17.5468C14.3688 19.2735 15.7741 20.6784 17.5 20.6784C19.2266 20.6784 20.6308 19.2735 20.6308 17.5468C20.6308 15.8214 19.2262 14.4164 17.5 14.4164Z" fill="url(#paint0_radial)"/>
<path fill-rule="evenodd" clip-rule="evenodd" d="M22.7158 9.31169H12.2842C10.6191 9.31169 9.2645 10.6663 9.2645 12.3314V22.763C9.2645 24.428 10.6191 25.783 12.2842 25.783H22.7158C24.3808 25.783 25.7358 24.4284 25.7358 22.763V12.3314C25.7358 10.6663 24.3812 9.31169 22.7158 9.31169ZM17.5 22.9696C14.5103 22.9696 12.0779 20.5372 12.0779 17.5472C12.0779 14.5575 14.5103 12.1251 17.5 12.1251C20.49 12.1251 22.9224 14.5575 22.9224 17.5472C22.9224 20.5368 20.4896 22.9696 17.5 22.9696ZM23.0967 13.2462C22.389 13.2462 21.8135 12.6706 21.8135 11.9633C21.8135 11.2559 22.389 10.6804 23.0967 10.6804C23.8041 10.6804 24.3796 11.2559 24.3796 11.9633C24.3796 12.6706 23.8041 13.2462 23.0967 13.2462Z" fill="#6A453B"/>
<path fill-rule="evenodd" clip-rule="evenodd" d="M22.7158 9.31169H12.2842C10.6191 9.31169 9.2645 10.6663 9.2645 12.3314V22.763C9.2645 24.428 10.6191 25.783 12.2842 25.783H22.7158C24.3808 25.783 25.7358 24.4284 25.7358 22.763V12.3314C25.7358 10.6663 24.3812 9.31169 22.7158 9.31169ZM17.5 22.9696C14.5103 22.9696 12.0779 20.5372 12.0779 17.5472C12.0779 14.5575 14.5103 12.1251 17.5 12.1251C20.49 12.1251 22.9224 14.5575 22.9224 17.5472C22.9224 20.5368 20.4896 22.9696 17.5 22.9696ZM23.0967 13.2462C22.389 13.2462 21.8135 12.6706 21.8135 11.9633C21.8135 11.2559 22.389 10.6804 23.0967 10.6804C23.8041 10.6804 24.3796 11.2559 24.3796 11.9633C24.3796 12.6706 23.8041 13.2462 23.0967 13.2462Z" fill="url(#paint1_radial)"/>
<path fill-rule="evenodd" clip-rule="evenodd" d="M0 17.5C0 7.8354 7.8354 0 17.5 0C27.1646 0 35 7.8354 35 17.5C35 27.1646 27.1646 35 17.5 35C7.8354 35 0 27.1646 0 17.5ZM22.7158 28.0739C25.6446 28.0739 28.0268 25.6918 28.0268 22.763V12.3314C28.0268 9.40295 25.6446 7.02043 22.7158 7.02043H12.2842C9.35577 7.02043 6.97325 9.40295 6.97325 12.3314V22.763C6.97325 25.6918 9.35577 28.0739 12.2842 28.0739H22.7158Z" fill="#6A453B"/>
<path fill-rule="evenodd" clip-rule="evenodd" d="M0 17.5C0 7.8354 7.8354 0 17.5 0C27.1646 0 35 7.8354 35 17.5C35 27.1646 27.1646 35 17.5 35C7.8354 35 0 27.1646 0 17.5ZM22.7158 28.0739C25.6446 28.0739 28.0268 25.6918 28.0268 22.763V12.3314C28.0268 9.40295 25.6446 7.02043 22.7158 7.02043H12.2842C9.35577 7.02043 6.97325 9.40295 6.97325 12.3314V22.763C6.97325 25.6918 9.35577 28.0739 12.2842 28.0739H22.7158Z" fill="url(#paint2_radial)"/>
</g>
<defs>
<radialGradient id="paint0_radial" cx="0" cy="0" r="1" gradientUnits="userSpaceOnUse" gradientTransform="translate(7.1748 30.5872) scale(38.5988)">
<stop stop-color="#FAE100"/>
<stop offset="0.0544" stop-color="#FADC04"/>
<stop offset="0.1167" stop-color="#FBCE0E"/>
<stop offset="0.1829" stop-color="#FCB720"/>
<stop offset="0.2514" stop-color="#FE9838"/>
<stop offset="0.3054" stop-color="#FF7950"/>
<stop offset="0.4922" stop-color="#FF1C74"/>
<stop offset="1" stop-color="#6C1CD1"/>
</radialGradient>
<radialGradient id="paint1_radial" cx="0" cy="0" r="1" gradientUnits="userSpaceOnUse" gradientTransform="translate(7.1748 30.5872) scale(38.5988)">
<stop stop-color="#FAE100"/>
<stop offset="0.0544" stop-color="#FADC04"/>
<stop offset="0.1167" stop-color="#FBCE0E"/>
<stop offset="0.1829" stop-color="#FCB720"/>
<stop offset="0.2514" stop-color="#FE9838"/>
<stop offset="0.3054" stop-color="#FF7950"/>
<stop offset="0.4922" stop-color="#FF1C74"/>
<stop offset="1" stop-color="#6C1CD1"/>
</radialGradient>
<radialGradient id="paint2_radial" cx="0" cy="0" r="1" gradientUnits="userSpaceOnUse" gradientTransform="translate(7.1748 30.5872) scale(38.5988)">
<stop stop-color="#FAE100"/>
<stop offset="0.0544" stop-color="#FADC04"/>
<stop offset="0.1167" stop-color="#FBCE0E"/>
<stop offset="0.1829" stop-color="#FCB720"/>
<stop offset="0.2514" stop-color="#FE9838"/>
<stop offset="0.3054" stop-color="#FF7950"/>
<stop offset="0.4922" stop-color="#FF1C74"/>
<stop offset="1" stop-color="#6C1CD1"/>
</radialGradient>
<clipPath id="clip0">
<rect width="35" height="35" fill="white"/>
</clipPath>
</defs>
</svg>
