<svg width="35" height="35" viewBox="0 0 35 35" fill="none" xmlns="http://www.w3.org/2000/svg">
<g clip-path="url(#clip0)">
<path d="M17.4998 35.0003C27.1646 35.0003 34.9996 27.1654 34.9996 17.5005C34.9996 7.83565 27.1646 0.000732422 17.4998 0.000732422C7.83492 0.000732422 0 7.83565 0 17.5005C0 27.1654 7.83492 35.0003 17.4998 35.0003Z" fill="url(#paint0_linear)"/>
<path d="M11.5649 19.1879L6.9795 17.1816C6.46274 16.9556 6.4977 16.211 7.03349 16.0347L24.47 10.2866C24.9262 10.1363 25.3707 10.5436 25.2608 11.0114L21.7765 25.8263C21.6724 26.2689 21.1406 26.4494 20.7888 26.1613L16.6945 22.8113L11.5649 19.1879Z" fill="#EBF0FA"/>
<path d="M21.0656 13.4857L11.5649 19.1879L12.7274 24.58C12.8317 25.0638 13.4019 25.277 13.798 24.9804L16.6946 22.8112L14.3113 20.8608L21.3658 13.8719C21.5726 13.667 21.3153 13.3359 21.0656 13.4857Z" fill="#C8DAEA"/>
<path d="M13.1108 25.0553C13.3244 25.1518 13.5861 25.1392 13.7981 24.9804L16.6947 22.8113L15.5031 21.8361L14.3114 20.8608L13.1108 25.0553Z" fill="#A9C9DD"/>
</g>
<defs>
<linearGradient id="paint0_linear" x1="17.4998" y1="0.000732422" x2="17.4998" y2="35.0003" gradientUnits="userSpaceOnUse">
<stop stop-color="#37AEE2"/>
<stop offset="1" stop-color="#1E96C8"/>
</linearGradient>
<clipPath id="clip0">
<rect width="35" height="35" fill="white"/>
</clipPath>
</defs>
</svg>
