<svg width="35" height="35" viewBox="0 0 35 35" fill="none" xmlns="http://www.w3.org/2000/svg">
<g clip-path="url(#clip0)">
<path d="M17.5008 34.9997C27.1657 34.9997 35.0007 27.1647 35.0007 17.4998C35.0007 7.83495 27.1657 0 17.5008 0C7.83592 0 0.000976562 7.83495 0.000976562 17.4998C0.000976562 27.1647 7.83592 34.9997 17.5008 34.9997Z" fill="#00B3EE"/>
<path d="M28.2193 12.5765C27.4694 12.9091 26.6627 13.134 25.8167 13.2344C26.6805 12.7169 27.3434 11.898 27.6563 10.9207C26.848 11.4002 25.9524 11.748 25 11.9355C24.237 11.1228 23.1498 10.615 21.946 10.615C19.6363 10.615 17.763 12.4883 17.763 14.7979C17.763 15.1258 17.8002 15.4449 17.8719 15.7513C14.3955 15.5769 11.3131 13.9117 9.24988 11.3802C8.88989 11.9979 8.68337 12.7169 8.68337 13.4834C8.68337 14.9343 9.42239 16.2151 10.5442 16.9651C9.85881 16.9435 9.21338 16.7554 8.64968 16.4413C8.64937 16.4591 8.64937 16.4769 8.64937 16.4943C8.64937 18.5211 10.0918 20.2116 12.005 20.5956C11.6544 20.6916 11.2841 20.7425 10.9032 20.7425C10.6331 20.7425 10.3713 20.7166 10.1162 20.6679C10.6484 22.3294 12.1928 23.5388 14.0237 23.5728C12.5918 24.6949 10.7884 25.3634 8.82812 25.3634C8.49121 25.3634 8.15742 25.3438 7.83081 25.3048C9.68099 26.4921 11.8803 27.1843 14.2423 27.1843C21.9363 27.1843 26.1439 20.8105 26.1439 15.2824C26.1439 15.1012 26.1399 14.9205 26.1318 14.7415C26.9497 14.1519 27.6588 13.4154 28.2193 12.5765Z" fill="#F1F2F2"/>
</g>
<defs>
<clipPath id="clip0">
<rect width="35" height="35" fill="white"/>
</clipPath>
</defs>
</svg>
