<svg width="35" height="35" viewBox="0 0 35 35" fill="none" xmlns="http://www.w3.org/2000/svg">
<path d="M17.5 35C27.165 35 35 27.165 35 17.5C35 7.83502 27.165 0 17.5 0C7.83502 0 0 7.83502 0 17.5C0 27.165 7.83502 35 17.5 35Z" fill="#4D76A1"/>
<path fill-rule="evenodd" clip-rule="evenodd" d="M16.8391 25.1753H18.2126C18.2126 25.1753 18.6275 25.1297 18.8393 24.9014C19.0343 24.6918 19.0281 24.2981 19.0281 24.2981C19.0281 24.2981 19.0012 22.455 19.8566 22.1836C20.6998 21.9163 21.7826 23.9649 22.9303 24.7526C23.7982 25.3487 24.4576 25.218 24.4576 25.218L27.5263 25.1753C27.5263 25.1753 29.1316 25.0764 28.3705 23.8142C28.3081 23.711 27.9272 22.8806 26.0888 21.1742C24.1647 19.3882 24.4224 19.6771 26.7402 16.5878C28.1518 14.7064 28.7161 13.5578 28.5399 13.0659C28.3717 12.5973 27.3335 12.7212 27.3335 12.7212L23.8783 12.7427C23.8783 12.7427 23.6222 12.7077 23.4322 12.8213C23.2466 12.9327 23.1271 13.1922 23.1271 13.1922C23.1271 13.1922 22.5803 14.6481 21.8509 15.8862C20.3124 18.4988 19.6972 18.6367 19.4458 18.4745C18.8609 18.0964 19.0069 16.9556 19.0069 16.1452C19.0069 13.6133 19.3909 12.5577 18.2591 12.2844C17.8835 12.1936 17.6071 12.1337 16.6466 12.1241C15.4138 12.1113 14.3703 12.1278 13.7794 12.4173C13.3864 12.6098 13.0832 13.0387 13.2678 13.0634C13.4962 13.0939 14.0134 13.2028 14.2876 13.5762C14.6417 14.0579 14.6292 15.1397 14.6292 15.1397C14.6292 15.1397 14.8326 18.1201 14.1541 18.4904C13.6884 18.7444 13.0495 18.2259 11.6778 15.8557C10.975 14.6415 10.4443 13.2995 10.4443 13.2995C10.4443 13.2995 10.342 13.0487 10.1595 12.9146C9.93805 12.752 9.62859 12.7003 9.62859 12.7003L6.34527 12.7218C6.34527 12.7218 5.85238 12.7355 5.67145 12.9498C5.51048 13.1404 5.65866 13.5347 5.65866 13.5347C5.65866 13.5347 8.22916 19.5486 11.1397 22.5792C13.8085 25.3578 16.8391 25.1753 16.8391 25.1753Z" fill="white"/>
</svg>
