<svg width="513" height="513" viewBox="0 0 513 513" fill="none" xmlns="http://www.w3.org/2000/svg">
<g clip-path="url(#clip0)">
<path d="M503.174 423.727H8.82995C3.95495 423.727 0.00195312 419.774 0.00195312 414.899V97.1059C0.00195312 92.2309 3.95495 88.278 8.82995 88.278H503.175C508.05 88.278 512.003 92.2309 512.003 97.1059V414.899C512.002 419.775 508.049 423.727 503.174 423.727Z" fill="#41479B"/>
<path d="M247.174 88.2789H231.84L150.07 141.853V88.2789H105.932V141.853L24.162 88.2789H8.82995C3.95495 88.2789 0.00195312 92.2309 0.00195312 97.1059V104.108L70.157 150.071H0.00195312V194.209H70.157L0.00195312 240.173V247.175C0.00195312 252.05 3.95495 256.003 8.82995 256.003H24.164L105.934 202.429V256.003H150.072V202.429L231.841 256.003H247.175C252.05 256.003 256.003 252.05 256.003 247.175V240.173L185.848 194.21H256.002V150.072H185.847L256.002 104.109V97.1069C256.002 92.2309 252.049 88.2789 247.174 88.2789Z" fill="#F5F5F5"/>
<path d="M256.002 158.9H141.243V88.2789H114.761V158.9H0.00195312V185.382H114.761V256.003H141.243V185.382H256.002V158.9Z" fill="#FF4B55"/>
<path d="M97.1049 150.072L4.20895 89.7709C1.73695 91.3349 0.00195312 93.9639 0.00195312 97.1059V97.5639L80.891 150.072H97.1049Z" fill="#FF4B55"/>
<path d="M166.285 150.072L254.659 92.7059C253.123 90.1069 250.413 88.2789 247.174 88.2789H245.265L150.071 150.072H166.285Z" fill="#FF4B55"/>
<path d="M89.476 194.21L1.271 251.466C2.792 254.128 5.544 256.003 8.83 256.003H10.495L105.691 194.21H89.476Z" fill="#FF4B55"/>
<path d="M255.862 247.868L173.196 194.21H156.982L250.856 255.145C253.668 253.84 255.597 251.105 255.862 247.868Z" fill="#FF4B55"/>
<path d="M130.673 304.133L137.336 326.13L158.689 317.625C160.511 316.899 162.167 318.977 161.055 320.591L148.011 339.515L167.973 350.906C169.676 351.878 169.085 354.468 167.129 354.605L144.2 356.206L147.741 378.916C148.043 380.854 145.649 382.007 144.323 380.562L128.775 363.634L113.227 380.562C111.901 382.006 109.507 380.853 109.809 378.916L113.35 356.206L90.421 354.605C88.465 354.468 87.874 351.878 89.577 350.906L109.539 339.515L96.495 320.591C95.383 318.977 97.039 316.899 98.861 317.625L120.214 326.13L126.877 304.133C127.448 302.256 130.105 302.256 130.673 304.133Z" fill="#F5F5F5"/>
<path d="M393.281 147.732L396.536 158.477L406.966 154.323C407.855 153.969 408.665 154.983 408.121 155.772L401.75 165.017L411.501 170.582C412.333 171.056 412.044 172.322 411.088 172.388L399.888 173.17L401.617 184.263C401.765 185.21 400.595 185.773 399.947 185.067L392.352 176.798L384.757 185.067C384.109 185.772 382.94 185.209 383.087 184.263L384.816 173.17L373.616 172.388C372.66 172.322 372.371 171.056 373.203 170.582L382.954 165.017L376.583 155.772C376.039 154.983 376.849 153.969 377.738 154.323L388.168 158.477L391.423 147.732C391.705 146.815 393.004 146.815 393.281 147.732Z" fill="#F5F5F5"/>
<path d="M320.704 230.208L323.959 240.953L334.389 236.799C335.278 236.445 336.088 237.459 335.544 238.248L329.173 247.493L338.924 253.058C339.756 253.532 339.467 254.798 338.511 254.864L327.311 255.646L329.04 266.739C329.188 267.686 328.018 268.249 327.37 267.543L319.775 259.274L312.18 267.543C311.532 268.248 310.363 267.685 310.51 266.739L312.239 255.646L301.039 254.864C300.083 254.798 299.794 253.532 300.626 253.058L310.377 247.493L304.006 238.248C303.462 237.459 304.272 236.445 305.161 236.799L315.591 240.953L318.846 230.208C319.128 229.291 320.426 229.291 320.704 230.208Z" fill="#F5F5F5"/>
<path d="M461.945 194.897L465.2 205.642L475.63 201.488C476.519 201.134 477.329 202.148 476.785 202.937L470.414 212.182L480.165 217.747C480.997 218.221 480.708 219.487 479.752 219.553L468.552 220.335L470.281 231.428C470.429 232.375 469.259 232.938 468.612 232.232L461.017 223.963L453.422 232.232C452.774 232.937 451.605 232.374 451.752 231.428L453.481 220.335L442.281 219.553C441.325 219.487 441.036 218.221 441.868 217.747L451.619 212.182L445.248 202.937C444.704 202.148 445.514 201.134 446.403 201.488L456.833 205.642L460.088 194.897C460.369 193.98 461.667 193.98 461.945 194.897Z" fill="#F5F5F5"/>
<path d="M393.281 336.139L396.536 346.884L406.966 342.729C407.855 342.375 408.665 343.389 408.121 344.178L401.75 353.423L411.501 358.988C412.333 359.462 412.044 360.728 411.088 360.794L399.888 361.576L401.617 372.669C401.765 373.616 400.595 374.179 399.947 373.473L392.352 365.204L384.757 373.473C384.109 374.178 382.94 373.615 383.087 372.669L384.816 361.576L373.616 360.794C372.66 360.728 372.371 359.462 373.203 358.988L382.954 353.423L376.583 344.178C376.039 343.389 376.849 342.375 377.738 342.729L388.168 346.884L391.423 336.139C391.705 335.222 393.004 335.222 393.281 336.139Z" fill="#F5F5F5"/>
<path d="M418.463 249.516L415.85 257.352L407.591 257.416C406.522 257.425 406.078 258.789 406.939 259.424L413.583 264.331L411.091 272.206C410.769 273.226 411.93 274.069 412.799 273.447L419.519 268.644L426.239 273.447C427.109 274.069 428.269 273.225 427.947 272.206L425.455 264.331L432.099 259.424C432.96 258.788 432.516 257.425 431.447 257.416L423.188 257.352L420.575 249.516C420.236 248.501 418.801 248.501 418.463 249.516Z" fill="#F5F5F5"/>
</g>
<defs>
<clipPath id="clip0">
<rect width="512.001" height="512.001" fill="white" transform="translate(0.00195312 0.00195312)"/>
</clipPath>
</defs>
</svg>
