<svg width="512" height="512" viewBox="0 0 512 512" fill="none" xmlns="http://www.w3.org/2000/svg">
<path d="M0 98C0 92.4772 4.47715 88 10 88H502C507.523 88 512 92.4772 512 98V200H0V98Z" fill="#D80027"/>
<path d="M0 312H512V414C512 419.523 507.523 424 502 424H10C4.47715 424 0 419.523 0 414V312Z" fill="black"/>
<path d="M0 200H512V312H0V200Z" fill="#F0F0F0"/>
<path d="M314 237.75H270.5C270.5 229.604 264.008 223 256 223C247.992 223 241.5 229.604 241.5 237.75H198C198 245.897 204.975 252.5 212.983 252.5H212.5C212.5 260.647 218.991 267.25 227 267.25C227 275.397 233.491 282 241.5 282H270.5C278.509 282 285 275.397 285 267.25C293.009 267.25 299.5 260.647 299.5 252.5H299.017C307.025 252.5 314 245.897 314 237.75Z" fill="#FF9811"/>
</svg>
