<svg width="512" height="512" viewBox="0 0 512 512" fill="none" xmlns="http://www.w3.org/2000/svg">
<path d="M512 98C512 92.4771 507.523 88 502 88H10C4.47715 88 0 92.4772 0 98V414C0 419.523 4.47715 424 10 424H502C507.523 424 512 419.523 512 414V98Z" fill="#F0F0F0"/>
<path d="M0 312.882V414C0 419.523 4.47715 424 10 424H502C507.523 424 512 419.523 512 414V312.882H0Z" fill="#D80027"/>
<path d="M322.783 226.313V204.052H330.203V189.212H315.362V196.631H300.522V189.212H285.682V204.052H293.101V226.313H278.261V174.373H285.682V159.531H270.84V166.951H263.421V159.531H248.579V166.951H241.16V159.531H226.318V174.373H233.739V226.313H218.899V204.052H226.318V189.212H211.478V196.631H196.638V189.212H181.797V204.052H189.217V226.313H174.377V285.675H337.623V226.313H322.783Z" fill="#D80027"/>
<path d="M256 278.255C243.705 278.255 233.739 288.221 233.739 300.516C233.739 310.207 239.934 318.449 248.579 321.505V352.458H226.318V382.14H263.419V321.506C272.065 318.451 278.26 310.209 278.26 300.517C278.261 288.221 268.295 278.255 256 278.255ZM256 307.936C251.902 307.936 248.579 304.614 248.579 300.515C248.579 296.416 251.9 293.094 256 293.094C260.098 293.094 263.421 296.415 263.421 300.515C263.421 304.613 260.098 307.936 256 307.936Z" fill="#FFDA44"/>
</svg>
