<svg width="512" height="512" viewBox="0 0 512 512" fill="none" xmlns="http://www.w3.org/2000/svg">
<g clip-path="url(#clip0)">
<path d="M170.668 423.721H8.82898C3.95398 423.721 0.000976562 419.768 0.000976562 414.893V97.1C0.000976562 92.225 3.95398 88.272 8.82898 88.272H170.668V423.721Z" fill="#82AFFF"/>
<path d="M341.341 88.277H170.671V423.727H341.341V88.277Z" fill="#F5F5F5"/>
<path d="M503.173 423.721H341.334V88.273H503.173C508.048 88.273 512.001 92.226 512.001 97.101V414.894C512.001 419.77 508.048 423.721 503.173 423.721Z" fill="#82AFFF"/>
<path d="M253.774 212.107L248.712 214.639L253.369 216.561L253.774 212.107Z" fill="#FFC855"/>
<path d="M256.001 305.65C227.866 305.65 204.978 282.76 204.978 254.627C204.978 237.149 213.775 221.079 228.509 211.638L229.819 213.684C215.785 222.677 207.408 237.983 207.408 254.627C207.408 281.422 229.208 303.221 256.002 303.221L256.001 305.65Z" fill="#73AF00"/>
<path d="M226.799 308.833C228.743 309.229 231.742 308.716 234.822 307.282C237.903 305.846 240.224 303.88 241.171 302.137C239.227 301.741 236.228 302.254 233.148 303.688C230.069 305.125 227.747 307.09 226.799 308.833Z" fill="#73AF00"/>
<path d="M241.173 302.138C241.569 300.194 241.056 297.195 239.622 294.115C238.186 291.034 236.22 288.713 234.477 287.766C234.081 289.71 234.594 292.709 236.028 295.789C237.463 298.867 239.429 301.189 241.173 302.138Z" fill="#73AF00"/>
<path d="M216.634 302.594C218.499 303.272 221.541 303.204 224.798 302.238C228.055 301.271 230.641 299.666 231.834 298.081C229.969 297.403 226.927 297.471 223.67 298.437C220.413 299.404 217.827 301.008 216.634 302.594Z" fill="#73AF00"/>
<path d="M231.835 298.079C232.513 296.214 232.445 293.172 231.479 289.915C230.511 286.657 228.907 284.072 227.322 282.879C226.644 284.744 226.712 287.786 227.678 291.043C228.645 294.301 230.25 296.887 231.835 298.079Z" fill="#73AF00"/>
<path d="M207.232 294.086C208.945 295.087 211.949 295.568 215.328 295.202C218.707 294.836 221.538 293.721 222.996 292.376C221.283 291.375 218.279 290.894 214.9 291.26C211.521 291.626 208.69 292.741 207.232 294.086Z" fill="#73AF00"/>
<path d="M222.996 292.375C223.997 290.662 224.478 287.658 224.112 284.279C223.746 280.9 222.631 278.069 221.286 276.611C220.285 278.324 219.804 281.328 220.17 284.707C220.536 288.086 221.651 290.918 222.996 292.375Z" fill="#73AF00"/>
<path d="M199.459 282.336C200.967 283.625 203.839 284.63 207.229 284.867C210.619 285.104 213.604 284.509 215.276 283.444C213.768 282.155 210.896 281.15 207.506 280.913C204.116 280.676 201.132 281.271 199.459 282.336Z" fill="#73AF00"/>
<path d="M215.277 283.444C216.566 281.936 217.571 279.064 217.808 275.674C218.045 272.284 217.45 269.299 216.385 267.627C215.096 269.135 214.091 272.007 213.854 275.397C213.616 278.788 214.211 281.771 215.277 283.444Z" fill="#73AF00"/>
<path d="M194.909 269.395C196.113 270.972 198.708 272.559 201.973 273.504C205.238 274.449 208.279 274.495 210.14 273.805C208.936 272.228 206.341 270.641 203.076 269.696C199.811 268.751 196.769 268.704 194.909 269.395Z" fill="#73AF00"/>
<path d="M210.139 273.805C211.716 272.601 213.303 270.006 214.248 266.741C215.194 263.476 215.239 260.435 214.549 258.574C212.972 259.778 211.385 262.373 210.44 265.638C209.495 268.904 209.45 271.944 210.139 273.805Z" fill="#73AF00"/>
<path d="M192.983 254.283C193.741 256.117 195.841 258.317 198.753 260.071C201.665 261.824 204.592 262.651 206.568 262.462C205.81 260.628 203.71 258.428 200.798 256.674C197.887 254.921 194.958 254.096 192.983 254.283Z" fill="#73AF00"/>
<path d="M206.568 262.462C208.402 261.704 210.602 259.604 212.356 256.692C214.109 253.78 214.936 250.853 214.747 248.877C212.913 249.635 210.713 251.735 208.959 254.647C207.207 257.56 206.379 260.487 206.568 262.462Z" fill="#73AF00"/>
<path d="M194.808 240.016C195.164 241.968 196.757 244.56 199.236 246.885C201.715 249.21 204.406 250.631 206.375 250.862C206.019 248.91 204.426 246.318 201.947 243.993C199.468 241.669 196.779 240.246 194.808 240.016Z" fill="#73AF00"/>
<path d="M206.377 250.863C208.329 250.507 210.921 248.914 213.246 246.435C215.571 243.956 216.992 241.265 217.223 239.296C215.271 239.652 212.679 241.245 210.354 243.724C208.029 246.202 206.606 248.891 206.377 250.863Z" fill="#73AF00"/>
<path d="M201.976 224.579C201.568 226.52 202.061 229.522 203.477 232.612C204.893 235.702 206.845 238.035 208.582 238.994C208.99 237.053 208.497 234.051 207.081 230.961C205.665 227.87 203.713 225.536 201.976 224.579Z" fill="#73AF00"/>
<path d="M208.581 238.994C210.522 239.402 213.524 238.909 216.614 237.493C219.704 236.077 222.037 234.125 222.996 232.388C221.055 231.98 218.053 232.473 214.963 233.889C211.873 235.305 209.539 237.257 208.581 238.994Z" fill="#73AF00"/>
<path d="M210.547 213.146C209.632 214.906 209.3 217.931 209.833 221.287C210.366 224.644 211.618 227.417 213.034 228.806C213.949 227.046 214.281 224.021 213.748 220.665C213.215 217.309 211.962 214.536 210.547 213.146Z" fill="#73AF00"/>
<path d="M213.035 228.807C214.795 229.722 217.82 230.054 221.176 229.521C224.533 228.988 227.306 227.736 228.695 226.32C226.935 225.405 223.91 225.073 220.554 225.606C217.197 226.139 214.424 227.391 213.035 228.807Z" fill="#73AF00"/>
<path d="M218.952 205.189C217.788 206.796 217.014 209.737 217.047 213.136C217.08 216.535 217.911 219.461 219.106 221.044C220.27 219.437 221.044 216.496 221.011 213.097C220.978 209.699 220.148 206.771 218.952 205.189Z" fill="#73AF00"/>
<path d="M219.106 221.044C220.713 222.208 223.654 222.982 227.053 222.949C230.452 222.916 233.378 222.085 234.961 220.89C233.354 219.726 230.413 218.952 227.014 218.985C223.616 219.018 220.69 219.85 219.106 221.044Z" fill="#73AF00"/>
<path d="M223.184 216.876C225.161 217.036 228.078 216.169 230.964 214.374C233.851 212.58 235.92 210.35 236.652 208.506C234.675 208.346 231.758 209.213 228.872 211.008C225.986 212.801 223.917 215.031 223.184 216.876Z" fill="#73AF00"/>
<path d="M256.001 305.65V303.22C282.795 303.22 304.595 281.421 304.595 254.626C304.595 237.982 296.217 222.675 282.184 213.683L283.494 211.637C298.228 221.078 307.025 237.149 307.025 254.626C307.024 282.759 284.136 305.65 256.001 305.65Z" fill="#73AF00"/>
<path d="M285.203 308.833C283.259 309.229 280.26 308.716 277.18 307.282C274.099 305.846 271.778 303.88 270.831 302.137C272.775 301.741 275.774 302.254 278.854 303.688C281.933 305.125 284.255 307.09 285.203 308.833Z" fill="#73AF00"/>
<path d="M270.829 302.138C270.433 300.194 270.946 297.195 272.38 294.115C273.816 291.034 275.782 288.713 277.525 287.766C277.921 289.71 277.408 292.709 275.974 295.789C274.539 298.867 272.573 301.189 270.829 302.138Z" fill="#73AF00"/>
<path d="M295.368 302.594C293.503 303.272 290.461 303.204 287.204 302.238C283.947 301.271 281.361 299.666 280.168 298.081C282.033 297.403 285.075 297.471 288.332 298.437C291.589 299.404 294.175 301.008 295.368 302.594Z" fill="#73AF00"/>
<path d="M280.166 298.079C279.489 296.214 279.556 293.172 280.522 289.915C281.49 286.657 283.094 284.072 284.679 282.879C285.357 284.744 285.289 287.786 284.323 291.043C283.357 294.301 281.752 296.887 280.166 298.079Z" fill="#73AF00"/>
<path d="M304.77 294.086C303.057 295.087 300.053 295.568 296.674 295.202C293.295 294.836 290.464 293.721 289.006 292.376C290.719 291.375 293.723 290.894 297.102 291.26C300.481 291.626 303.312 292.741 304.77 294.086Z" fill="#73AF00"/>
<path d="M289.006 292.375C288.005 290.662 287.524 287.658 287.89 284.279C288.256 280.9 289.371 278.069 290.716 276.611C291.717 278.324 292.198 281.328 291.832 284.707C291.466 288.086 290.351 290.918 289.006 292.375Z" fill="#73AF00"/>
<path d="M312.543 282.336C311.035 283.625 308.163 284.63 304.773 284.867C301.383 285.104 298.399 284.509 296.726 283.444C298.234 282.155 301.106 281.15 304.496 280.913C307.886 280.676 310.87 281.271 312.543 282.336Z" fill="#73AF00"/>
<path d="M296.725 283.444C295.436 281.936 294.431 279.064 294.194 275.674C293.957 272.284 294.552 269.299 295.617 267.627C296.906 269.135 297.911 272.007 298.148 275.397C298.386 278.788 297.791 281.771 296.725 283.444Z" fill="#73AF00"/>
<path d="M317.093 269.395C315.889 270.972 313.294 272.559 310.029 273.504C306.765 274.45 303.723 274.495 301.862 273.805C303.066 272.228 305.661 270.641 308.926 269.696C312.191 268.751 315.233 268.704 317.093 269.395Z" fill="#73AF00"/>
<path d="M301.863 273.805C300.286 272.601 298.699 270.006 297.754 266.741C296.808 263.476 296.763 260.435 297.453 258.574C299.03 259.778 300.617 262.373 301.562 265.638C302.507 268.904 302.552 271.944 301.863 273.805Z" fill="#73AF00"/>
<path d="M319.019 254.283C318.261 256.117 316.161 258.317 313.249 260.071C310.337 261.824 307.41 262.651 305.434 262.462C306.192 260.628 308.292 258.428 311.204 256.674C314.115 254.921 317.044 254.096 319.019 254.283Z" fill="#73AF00"/>
<path d="M305.434 262.462C303.6 261.704 301.4 259.604 299.646 256.692C297.893 253.78 297.066 250.853 297.255 248.877C299.089 249.635 301.289 251.735 303.043 254.647C304.797 257.56 305.623 260.487 305.434 262.462Z" fill="#73AF00"/>
<path d="M317.194 240.016C316.838 241.968 315.245 244.56 312.766 246.885C310.287 249.21 307.596 250.631 305.627 250.862C305.983 248.91 307.576 246.318 310.055 243.993C312.534 241.668 315.223 240.246 317.194 240.016Z" fill="#73AF00"/>
<path d="M305.625 250.863C303.673 250.507 301.081 248.914 298.756 246.435C296.431 243.956 295.01 241.265 294.779 239.296C296.731 239.652 299.323 241.245 301.648 243.724C303.973 246.202 305.396 248.891 305.625 250.863Z" fill="#73AF00"/>
<path d="M310.026 224.579C310.434 226.52 309.941 229.522 308.525 232.612C307.109 235.702 305.157 238.035 303.42 238.994C303.012 237.053 303.505 234.051 304.921 230.961C306.337 227.87 308.289 225.536 310.026 224.579Z" fill="#73AF00"/>
<path d="M303.421 238.994C301.48 239.402 298.478 238.909 295.388 237.493C292.298 236.077 289.965 234.125 289.006 232.388C290.947 231.98 293.949 232.473 297.039 233.889C300.129 235.305 302.463 237.257 303.421 238.994Z" fill="#73AF00"/>
<path d="M301.455 213.146C302.37 214.906 302.702 217.931 302.169 221.287C301.636 224.644 300.384 227.417 298.968 228.806C298.053 227.046 297.721 224.021 298.254 220.665C298.787 217.309 300.04 214.536 301.455 213.146Z" fill="#73AF00"/>
<path d="M298.967 228.807C297.207 229.722 294.182 230.054 290.826 229.521C287.469 228.988 284.696 227.736 283.307 226.32C285.067 225.405 288.092 225.073 291.448 225.606C294.805 226.139 297.578 227.391 298.967 228.807Z" fill="#73AF00"/>
<path d="M293.05 205.189C294.214 206.796 294.988 209.737 294.955 213.136C294.922 216.535 294.091 219.461 292.896 221.044C291.732 219.437 290.958 216.496 290.991 213.097C291.024 209.699 291.854 206.771 293.05 205.189Z" fill="#73AF00"/>
<path d="M292.896 221.044C291.289 222.208 288.348 222.982 284.949 222.949C281.55 222.916 278.624 222.085 277.041 220.89C278.648 219.726 281.589 218.952 284.988 218.985C288.387 219.018 291.312 219.85 292.896 221.044Z" fill="#73AF00"/>
<path d="M288.818 216.876C286.841 217.036 283.924 216.169 281.038 214.374C278.151 212.58 276.082 210.35 275.35 208.506C277.327 208.346 280.244 209.213 283.13 211.008C286.016 212.801 288.085 215.031 288.818 216.876Z" fill="#73AF00"/>
<path d="M228.147 294.349L219.303 303.193L214.942 294.47L228.026 281.386L232.387 285.747L231.127 289.526C230.521 291.344 229.501 292.995 228.147 294.349Z" fill="#966446"/>
<path d="M275.998 229.053L228.026 277.025C226.822 278.229 226.822 280.182 228.026 281.386L230.206 283.566L238.929 274.843L273.818 235.592L278.179 231.231L275.998 229.053Z" fill="#B9B9B9"/>
<path d="M239.831 269.581C239.253 270.159 238.927 270.944 238.927 271.761V274.845L273.816 235.594L239.831 269.581Z" fill="#966446"/>
<path d="M278.178 231.233L275.998 229.053L273.817 231.233L275.998 233.415L278.178 235.596L302.165 207.249L278.178 231.233Z" fill="#A0A0A0"/>
<path d="M286.285 294.349L295.129 303.193L299.49 294.47L286.406 281.386L282.045 285.747L283.305 289.526C283.911 291.344 284.931 292.995 286.285 294.349Z" fill="#966446"/>
<path d="M238.434 229.053L286.406 277.025C287.61 278.229 287.61 280.182 286.406 281.386L284.226 283.566L275.503 274.843L240.614 235.592L236.253 231.231L238.434 229.053Z" fill="#B9B9B9"/>
<path d="M274.601 269.581C275.179 270.159 275.505 270.944 275.505 271.761V274.845L240.616 235.594L274.601 269.581Z" fill="#966446"/>
<path d="M236.254 231.233L238.434 229.053L240.615 231.233L238.434 233.415L236.254 235.596L212.267 207.249L236.254 231.233Z" fill="#A0A0A0"/>
<path d="M239.316 292.534L241.483 294.51C249.389 285.842 263.224 270.673 285.156 250.981C285.157 250.982 266.987 262.198 239.316 292.534Z" fill="#B9B9B9"/>
<path d="M233.185 301.431C232.407 300.721 232.352 299.515 233.061 298.737L237.705 293.645C238.415 292.867 239.621 292.812 240.399 293.521C241.177 294.231 241.232 295.437 240.523 296.215L235.879 301.307C235.169 302.086 233.963 302.142 233.185 301.431Z" fill="#FFE15A"/>
<path d="M237.557 290.931L236.299 291.492C235.18 292.049 232.236 293.714 231.729 296.087C231.487 297.211 231.828 298.306 232.701 299.342C232.784 299.128 232.897 298.92 233.062 298.741L233.647 298.1C233.252 297.526 233.042 296.962 233.161 296.396C233.479 294.912 235.459 293.587 236.703 292.93L242.267 298.005L243.651 296.488L237.557 290.931Z" fill="#FFC855"/>
<path d="M275.094 294.934L272.927 296.91C265.021 288.242 251.186 273.073 229.254 253.381C229.253 253.382 247.423 264.596 275.094 294.934Z" fill="#B9B9B9"/>
<path d="M281.225 303.832C282.003 303.122 282.058 301.916 281.349 301.138L276.705 296.046C275.995 295.268 274.789 295.213 274.011 295.922C273.233 296.632 273.178 297.838 273.887 298.616L278.531 303.708C279.241 304.487 280.447 304.542 281.225 303.832Z" fill="#FFE15A"/>
<path d="M276.853 293.329L278.111 293.89C279.23 294.447 282.174 296.112 282.681 298.485C282.923 299.609 282.582 300.704 281.709 301.74C281.626 301.526 281.513 301.319 281.348 301.139L280.763 300.498C281.158 299.924 281.368 299.36 281.249 298.794C280.931 297.31 278.951 295.985 277.707 295.328L272.143 300.403L270.759 298.886L276.853 293.329Z" fill="#FFC855"/>
<path d="M258.162 214.684C258.332 214.262 258.431 213.805 258.431 213.322C258.431 211.309 256.799 209.677 254.786 209.677C252.773 209.677 251.141 211.309 251.141 213.322C251.141 214.521 251.728 215.576 252.623 216.241C251.305 226.826 261.742 227.635 265.719 229.115C271.753 231.359 279.322 235.902 278.846 248.599C278.384 260.941 270.579 272.85 270.579 272.85L277.058 264.042C274.689 274.062 269.157 286.826 256.001 302.005C256.001 302.005 264.996 293.206 272.502 281.859C266.979 294.852 260.86 306.864 260.86 306.864C260.86 306.864 271.693 292.792 280.45 268.445C291.066 238.927 268.734 221.193 258.162 214.684Z" fill="#69B469"/>
<path d="M248.72 258.267H239.001V263.127H248.72V258.267Z" fill="#F4E08F"/>
<path d="M239.001 267.988C241.685 267.988 243.861 265.812 243.861 263.128C243.861 260.444 241.685 258.268 239.001 258.268C236.317 258.268 234.141 260.444 234.141 263.128C234.141 265.812 236.317 267.988 239.001 267.988Z" fill="#ECD077"/>
<path d="M239.001 236.408C241.685 236.408 243.861 234.232 243.861 231.548C243.861 228.864 241.685 226.688 239.001 226.688C236.317 226.688 234.141 228.864 234.141 231.548C234.141 234.232 236.317 236.408 239.001 236.408Z" fill="#ECD077"/>
<path d="M268.149 236.404C270.833 236.404 273.009 234.228 273.009 231.544C273.009 228.86 270.833 226.684 268.149 226.684H238.993C241.677 226.684 243.853 228.86 243.853 231.544C243.853 234.228 241.677 236.404 238.993 236.404C236.309 236.404 234.133 234.228 234.133 231.544C234.133 239.701 240.959 249.563 243.16 258.271C243.16 258.271 243.852 260.447 243.852 263.131C243.852 265.815 241.676 267.991 238.992 267.991H268.148C270.832 267.991 273.008 265.815 273.008 263.131C273.008 254.974 266.182 245.112 263.981 236.404H268.149Z" fill="#FCF0A8"/>
<path d="M243.853 231.546C243.853 234.23 241.677 236.406 238.993 236.406H268.149C270.833 236.406 273.009 234.23 273.009 231.546H243.853Z" fill="#F4E08F"/>
<path d="M243.853 263.13C243.853 265.814 241.677 267.99 238.993 267.99H268.149C270.833 267.99 273.009 265.814 273.009 263.13H243.853Z" fill="#F4E08F"/>
</g>
<defs>
<clipPath id="clip0">
<rect width="512" height="512" fill="white" transform="translate(0.000976562)"/>
</clipPath>
</defs>
</svg>
