<svg width="512" height="512" viewBox="0 0 512 512" fill="none" xmlns="http://www.w3.org/2000/svg">
<g clip-path="url(#clip0)">
<path d="M0 312H512V415.157C512 420.041 508.047 424 503.172 424H8.828C3.953 424 0 420.041 0 415.157V312Z" fill="#73AF00"/>
<path d="M8.828 88H503.173C508.048 88 512.001 91.9595 512.001 96.8425V200H0V96.8415C0 91.9585 3.953 88 8.828 88Z" fill="#464655"/>
<path d="M512 199.998H0V311.992H512V199.998Z" fill="#C8414B"/>
<path d="M512 194.108H0V211.792H512V194.108Z" fill="#F5F5F5"/>
<path d="M512 300.214H0V317.898H512V300.214Z" fill="#F5F5F5"/>
<path d="M303.268 181.496C310.376 166.814 317.793 132.806 317.793 132.806C317.793 132.806 295.721 159.695 288.611 174.375C287.121 177.452 287.753 180.991 289.905 183.385L208.938 350.593L214.434 353.264L295.401 186.055C298.613 186.266 301.779 184.573 303.268 181.496Z" fill="#F5F5F5"/>
<path d="M208.732 181.496C201.624 166.814 194.207 132.806 194.207 132.806C194.207 132.806 216.279 159.695 223.389 174.375C224.879 177.452 224.247 180.991 222.095 183.385L303.062 350.593L297.566 353.264L216.599 186.055C213.387 186.266 210.221 184.573 208.732 181.496Z" fill="#F5F5F5"/>
<path d="M300.138 256C300.138 304.834 264.126 344.421 256 344.421C247.874 344.421 211.862 304.834 211.862 256C211.862 207.166 247.874 167.579 256 167.579C264.126 167.579 300.138 207.166 300.138 256Z" fill="#C8414B"/>
<path d="M291.31 298.661C296.509 286.009 300.138 271.476 300.138 256C300.138 240.524 296.51 225.992 291.31 213.339C286.111 225.991 282.482 240.524 282.482 256C282.482 271.476 286.111 286.009 291.31 298.661Z" fill="#464655"/>
<path d="M220.69 213.339C215.491 225.991 211.862 240.524 211.862 256C211.862 271.476 215.49 286.008 220.69 298.661C225.889 286.009 229.518 271.476 229.518 256C229.518 240.524 225.889 225.992 220.69 213.339Z" fill="#464655"/>
<path d="M256 269.263C260.876 269.263 264.828 263.325 264.828 256C264.828 248.675 260.876 242.737 256 242.737C251.124 242.737 247.172 248.675 247.172 256C247.172 263.325 251.124 269.263 256 269.263Z" fill="#F5F5F5"/>
<path d="M257.324 167.579V242.736C259.731 237.718 264 222.889 264 205.157C264 187.425 259.731 172.597 257.324 167.579Z" fill="#F5F5F5"/>
<path d="M254.676 167.579C252.269 172.597 248 187.425 248 205.157C248 222.89 252.269 237.719 254.676 242.736V167.579Z" fill="#F5F5F5"/>
<path d="M257.324 269.263V344.42C259.731 339.402 264 324.573 264 306.842C264 289.109 259.731 274.281 257.324 269.263Z" fill="#F5F5F5"/>
<path d="M254.676 269.263C252.269 274.281 248 289.109 248 306.842C248 324.574 252.269 339.403 254.676 344.42V269.263Z" fill="#F5F5F5"/>
</g>
<defs>
<clipPath id="clip0">
<rect width="512.001" height="512.001" fill="white"/>
</clipPath>
</defs>
</svg>
