<svg width="512" height="512" viewBox="0 0 512 512" fill="none" xmlns="http://www.w3.org/2000/svg">
<g clip-path="url(#clip0)">
<path d="M512.001 104.866V206.054H158.959L6.00098 92.3848C9.18403 89.5415 13.3825 87.9706 17.7412 88.0004H494.348C504.088 88.0265 511.974 95.5639 512.001 104.866Z" fill="#4C8056"/>
<path d="M512.001 305.946V407.137C511.974 416.44 504.088 423.973 494.348 424H17.7412C13.3825 424.029 9.18403 422.462 6.00098 419.615L158.955 305.946H512.001Z" fill="#C03A2B"/>
<path d="M159.001 206.054H512.001V305.946H159.001V206.054Z" fill="#E6E7E8"/>
<path d="M159.001 205.498V306.502L5.91882 419.964C2.1547 416.82 -0.00292688 412.28 0.000981864 407.509V104.495C-0.00292688 99.7236 2.1547 95.1796 5.91882 92.036L159.001 205.498Z" fill="#2C2F38"/>
</g>
<defs>
<clipPath id="clip0">
<rect width="512" height="512" fill="white" transform="translate(0.000976562)"/>
</clipPath>
</defs>
</svg>

