<svg width="513" height="512" viewBox="0 0 513 512" fill="none" xmlns="http://www.w3.org/2000/svg">
<g clip-path="url(#clip0)">
<path d="M512.001 158.898H0.000976562V97.104C0.000976562 92.229 3.95398 88.276 8.82898 88.276H503.174C508.049 88.276 512.002 92.229 512.002 97.104L512.001 158.898Z" fill="#FF4B55"/>
<path d="M503.173 423.725H8.82898C3.95398 423.725 0.000976562 419.772 0.000976562 414.897V353.104H512.001V414.897C512.001 419.773 508.048 423.725 503.173 423.725Z" fill="#FF4B55"/>
<path d="M512.001 158.901H0.000976562V353.111H512.001V158.901Z" fill="#F5F5F5"/>
<path d="M274.863 315.38L356.444 299.063C362.332 297.886 364.96 290.956 361.334 286.169C360.061 284.488 358.185 283.367 356.101 283.042L269.19 269.491C266.788 269.116 265.086 266.86 265.49 264.367C265.881 261.953 268.328 260.414 270.752 260.734L331.011 268.663C335.909 269.307 338.913 263.455 335.534 259.851L330.696 254.691C328.885 252.759 326.511 251.448 323.911 250.945L273.572 241.196L316.493 244.288C319.783 244.525 321.689 240.636 319.486 238.18L317.285 235.727C315.954 234.245 314.187 233.225 312.237 232.818L269.624 223.913L299.908 223.037C302.586 222.96 303.948 219.784 302.158 217.791L300.8 216.278C299.736 215.093 298.36 214.231 296.83 213.792L269.82 206.037H291.046C293.146 206.037 294.558 203.885 293.723 201.959L293.007 200.307C292.148 198.325 290.492 196.798 288.448 196.103L268.819 189.425L278.473 189.394C281.342 189.385 283.266 186.443 282.125 183.812C281.206 181.691 279.584 179.952 277.532 178.888L256.001 167.725L234.467 178.89C232.416 179.954 230.793 181.693 229.874 183.814C228.733 186.447 230.657 189.388 233.526 189.396L243.18 189.428L223.551 196.106C221.506 196.801 219.85 198.328 218.992 200.31L218.276 201.962C217.441 203.889 218.853 206.04 220.953 206.04H242.179L215.169 213.795C213.639 214.234 212.263 215.096 211.199 216.281L209.841 217.794C208.052 219.788 209.414 222.963 212.091 223.04L242.375 223.916L199.762 232.821C197.812 233.228 196.043 234.248 194.714 235.73L192.513 238.183C190.309 240.638 192.215 244.528 195.506 244.291L238.427 241.199L188.088 250.948C185.488 251.451 183.114 252.762 181.303 254.694L176.465 259.854C173.086 263.458 176.091 269.311 180.988 268.666L241.247 260.737C243.671 260.418 246.119 261.956 246.509 264.37C246.913 266.865 245.211 269.12 242.809 269.494L155.898 283.045C153.815 283.369 151.939 284.491 150.665 286.171C147.039 290.957 149.667 297.887 155.555 299.065L237.136 315.382V325.564C237.136 331.122 234.928 336.453 230.998 340.383L218.277 353.106H256.001H293.726L281.002 340.382C277.072 336.452 274.864 331.121 274.864 325.563V315.38H274.863Z" fill="#73AF00"/>
</g>
<defs>
<clipPath id="clip0">
<rect width="512.001" height="512.001" fill="white" transform="translate(0.000976562)"/>
</clipPath>
</defs>
</svg>
