<svg width="513" height="512" viewBox="0 0 513 512" fill="none" xmlns="http://www.w3.org/2000/svg">
<g clip-path="url(#clip0)">
<path d="M0.00195312 311.908H512.002V414.896C512.002 419.771 508.049 423.724 503.174 423.724H8.82995C3.95495 423.724 0.00195312 419.771 0.00195312 414.896V311.908Z" fill="#FF4B55"/>
<path d="M8.82995 88.276H503.175C508.05 88.276 512.003 92.229 512.003 97.104V200.092H0.00195312V97.103C0.00195312 92.228 3.95495 88.276 8.82995 88.276Z" fill="#FFE15A"/>
<path d="M512.002 200.09H0.00195312V311.9H512.002V200.09Z" fill="#73AF00"/>
<path d="M261.034 144.959L287.469 224.222L371.021 224.87C376.118 224.91 378.231 231.413 374.132 234.441L306.918 284.076L332.121 363.739C333.658 368.599 328.125 372.618 323.979 369.655L256.002 321.068L188.026 369.655C183.879 372.619 178.347 368.599 179.884 363.739L205.087 284.076L137.873 234.441C133.773 231.413 135.886 224.908 140.984 224.87L224.536 224.222L250.971 144.959C252.582 140.124 259.422 140.124 261.034 144.959Z" fill="#F5F5F5"/>
</g>
<defs>
<clipPath id="clip0">
<rect width="512.001" height="512.001" fill="white" transform="translate(0.00195312)"/>
</clipPath>
</defs>
</svg>
