<svg width="512" height="512" viewBox="0 0 512 512" fill="none" xmlns="http://www.w3.org/2000/svg">
<g clip-path="url(#clip0)">
<path d="M238.345 424H8.828C3.953 424 0 420.041 0 415.158V96.8425C0 91.9595 3.953 88 8.828 88H238.345V424Z" fill="#F5F5F5"/>
<path d="M503.172 88.001H167.372C167.605 88.001 167.837 88.0351 168.061 88.1052L221.447 104.444C223.67 105.124 223.669 108.278 221.445 108.956L175.11 123.088C172.885 123.767 172.884 126.92 175.108 127.6L221.448 141.785C223.671 142.465 223.67 145.619 221.446 146.297L175.11 160.429C172.885 161.108 172.884 164.261 175.108 164.941L221.448 179.126C223.671 179.807 223.67 182.961 221.446 183.638L175.124 197.764C172.898 198.444 172.898 201.599 175.124 202.277L221.446 216.404C223.671 217.083 223.672 220.236 221.448 220.916L175.108 235.101C172.885 235.782 172.886 238.937 175.11 239.614L221.446 253.745C223.671 254.422 223.672 257.577 221.448 258.257L175.108 272.442C172.885 273.124 172.886 276.277 175.11 276.955L221.446 291.086C223.671 291.763 223.672 294.918 221.448 295.597L175.108 309.783C172.885 310.464 172.886 313.618 175.11 314.295L221.445 328.427C223.67 329.104 223.671 332.26 221.447 332.939L175.108 347.123C172.885 347.804 172.886 350.957 175.11 351.635L221.432 365.764C223.658 366.441 223.658 369.598 221.432 370.275L175.11 384.403C172.885 385.08 172.884 388.235 175.108 388.914L221.448 403.1C223.671 403.78 223.67 406.934 221.446 407.611L168.06 423.893C167.838 423.961 167.606 423.996 167.374 423.996H503.173C508.048 423.996 512.001 420.036 512.001 415.154V96.8425C512 91.9595 508.047 88.001 503.172 88.001Z" fill="#873250"/>
</g>
<defs>
<clipPath id="clip0">
<rect width="512.001" height="512.001" fill="white"/>
</clipPath>
</defs>
</svg>
