<svg width="513" height="512" viewBox="0 0 513 512" fill="none" xmlns="http://www.w3.org/2000/svg">
<g clip-path="url(#clip0)">
<path d="M512.003 256H0.00292969V97.103C0.00292969 92.228 3.95593 88.275 8.83093 88.275H503.176C508.051 88.275 512.004 92.228 512.004 97.103L512.003 256Z" fill="#4173CD"/>
<path d="M0.00292969 256H512.003V414.897C512.003 419.772 508.05 423.725 503.175 423.725H8.83093C3.95593 423.725 0.00292969 419.772 0.00292969 414.897V256Z" fill="#4173CD"/>
<path d="M512.003 256H0.00292969V339.86H512.003V256Z" fill="#FFE15A"/>
<path d="M8.83093 423.724H503.176C508.051 423.724 512.004 419.771 512.004 414.896V339.862H0.00292969V414.896C0.00292969 419.772 3.95593 423.724 8.83093 423.724Z" fill="#73AF00"/>
<path d="M458.214 178.12L494.348 172.138L458.214 166.156L489.308 146.802L453.636 155.103L474.957 125.323L445.177 146.644L453.478 110.972L434.124 142.066L428.141 105.931L422.159 142.065L402.805 110.971L411.106 146.643L381.326 125.322L402.647 155.102L366.975 146.801L398.069 166.155L361.934 172.138L398.068 178.12L366.974 197.474L402.646 189.173L381.325 218.953L411.105 197.632L402.804 233.304L422.158 202.21L428.141 238.345L434.123 202.211L453.477 233.305L445.176 197.633L474.956 218.954L453.635 189.174L489.307 197.475L458.214 178.12ZM428.141 194.207C415.952 194.207 406.072 184.327 406.072 172.138C406.072 159.949 415.952 150.069 428.141 150.069C440.33 150.069 450.21 159.949 450.21 172.138C450.21 184.327 440.33 194.207 428.141 194.207Z" fill="#FFE15A"/>
<path d="M428.143 188.692C437.284 188.692 444.695 181.281 444.695 172.14C444.695 162.999 437.284 155.588 428.143 155.588C419.001 155.588 411.591 162.999 411.591 172.14C411.591 181.281 419.001 188.692 428.143 188.692Z" fill="#FFE15A"/>
</g>
<defs>
<clipPath id="clip0">
<rect width="512.001" height="512.001" fill="white" transform="translate(0.00292969)"/>
</clipPath>
</defs>
</svg>
