<svg width="512" height="512" viewBox="0 0 512 512" fill="none" xmlns="http://www.w3.org/2000/svg">
<path d="M0 344.276V97.103C0 92.228 3.953 88.275 8.828 88.275H388.414L0 344.276Z" fill="#73AF00"/>
<path d="M512 167.724V414.896C512 419.771 508.047 423.724 503.172 423.724H123.586L512 167.724Z" fill="#4173CD"/>
<path d="M512 172.702V97.103C512 92.228 508.047 88.275 503.172 88.275H383.139L0 339.298V414.896C0 419.771 3.953 423.724 8.828 423.724H128.861L512 172.702Z" fill="#FFE15A"/>
<path d="M512 141.047V97.103C512 92.228 508.047 88.275 503.172 88.275H431.454L0 370.953V414.897C0 419.772 3.953 423.725 8.828 423.725H80.546L512 141.047Z" fill="#464655"/>
</svg>
