<svg width="512" height="512" viewBox="0 0 512 512" fill="none" xmlns="http://www.w3.org/2000/svg">
<g clip-path="url(#clip0)">
<path d="M512 256H0V97.103C0 92.228 3.953 88.275 8.828 88.275H503.173C508.048 88.275 512.001 92.228 512.001 97.103L512 256Z" fill="#F5F5F5"/>
<path d="M0 256H512V414.897C512 419.772 508.047 423.725 503.172 423.725H8.828C3.953 423.725 0 419.772 0 414.897V256Z" fill="#73AF00"/>
<path d="M389.491 186.436C389.491 186.436 395.593 203.173 396.116 204.045L396.813 202.65L400.997 180.857L411.806 160.633L408.668 160.982L384.085 172.837C384.085 172.837 369.44 188.877 369.266 189.4C369.092 189.923 389.491 186.436 389.491 186.436Z" fill="#FF4B55"/>
<path d="M398.151 346.486C397.338 346.369 385.249 346.951 385.249 346.951L381.298 333.701L379.032 308.654L383.303 307.521L388.621 310.049L390.539 300.024C390.539 300.024 385.919 294.968 385.047 294.619C384.175 294.27 373.715 291.917 373.715 291.917L359.68 273.35L376.417 264.023L389.493 246.065L392.631 229.851L390.016 216.426L384.069 206.47C383.981 206.186 383.913 205.966 383.913 205.966C383.871 205.913 383.724 205.813 383.631 205.735L382.519 203.873L382.501 204.959C379.922 203.348 374.643 200.546 373.278 199.863C371.535 198.991 362.294 197.422 360.376 198.817C358.458 200.212 349.567 204.396 347.998 207.36C346.429 210.324 345.383 220.959 345.383 220.959C345.383 220.959 347.998 226.887 351.311 228.281C354.624 229.676 361.074 231.245 362.12 230.896C363.023 230.595 373.257 227.571 376.049 226.299L377.288 228.804L376.765 235.952L371.012 239.962L360.377 244.146C360.377 244.146 344.163 239.613 343.466 239.787C342.769 239.961 322.719 233.859 322.719 233.859L303.89 229.5L310.166 226.362L327.252 225.142C327.252 225.142 330.565 205.79 331.088 205.441C331.611 205.092 342.769 196.201 342.769 196.201L352.009 193.935L346.43 170.281L354.799 144.478L332.947 150.754L298.311 159.355L276.228 157.96L256.701 164.236L244.148 175.627L236.941 185.39L234.384 200.965L232.756 221.655L226.712 233.046L219.864 238.414C219.096 236.387 215.497 228.63 215.497 228.63L224.214 226.538L221.948 220.785L215.846 216.252L217.764 209.278L224.738 213.114L226.656 214.509L227.876 207.361L220.205 196.552L221.425 191.147L230.665 196.029L229.619 183.476L221.425 178.42L221.948 171.446L230.898 174.119L229.968 167.494L220.205 160.403L229.735 145.061L218.112 145.643L217.182 140.644L214.161 139.481C214.161 139.481 198.004 146.339 196.842 146.106C195.68 145.874 182.779 144.131 181.267 144.48C179.756 144.829 174.409 146.223 174.409 146.223L172.897 152.151L163.018 150.525L148.373 149.305L143.956 154.71L150.93 157.5C150.93 157.5 149.304 169.82 149.768 170.75C150.233 171.679 154.417 177.724 154.417 177.724L144.887 190.741L154.65 192.136L168.133 190.044L167.667 193.299L185.567 191.439L181.614 193.531L176.501 208.873L161.623 239.093L156.393 265.942L148.024 257.225L142.445 234.211L134.076 211.546C134.076 211.546 132.333 204.572 131.286 204.398C130.24 204.224 125.707 203.352 125.707 203.352L119.954 208.059L112.632 207.013L108.448 212.766L113.155 220.088C113.155 220.088 105.309 223.226 105.309 224.098C105.309 224.97 105.832 230.026 106.355 230.2C106.878 230.374 118.733 230.026 118.733 230.026L125.881 242.753L120.302 257.398L123.092 262.977L127.974 263.674L132.507 258.444L148.198 305.343C148.198 305.343 146.978 311.445 146.106 311.968C145.234 312.491 141.05 317.198 142.096 317.198C143.142 317.198 149.593 318.07 150.29 317.721C150.987 317.372 160.053 310.399 160.053 310.399C160.053 310.399 174.349 299.415 175.221 300.287C176.093 301.159 189.692 309.527 189.692 309.527L183.416 331.146L168.597 352.765L159.357 347.186L152.732 337.771L147.85 339.34L146.107 342.304L146.804 348.58C146.804 348.58 141.748 352.59 141.748 353.462C141.748 354.334 142.271 360.61 142.271 360.61C142.271 360.61 145.584 362.179 145.758 363.051C145.932 363.923 147.676 370.199 147.676 370.199L151.163 371.419L157.788 367.409H168.772L175.571 368.455L190.042 363.922L211.138 364.968L209.22 360.958C209.22 360.958 200.677 356.599 197.713 355.728C194.749 354.856 191.785 354.159 191.785 354.159L190.565 348.057L211.312 323.474L218.983 321.905L221.598 328.356C221.598 328.356 230.199 326.264 230.199 325.566C230.199 324.869 230.199 317.429 230.199 316.732C230.199 316.035 228.339 310.224 228.339 310.224C228.339 310.224 228.314 310.01 228.277 309.691L234.848 308.596L257.629 297.671L265.649 307.318L275.645 312.083L263.208 334.399L252.515 341.606L244.844 338.119L234.15 330.215L229.966 332.773L230.896 340.677L224.62 340.212L221.83 345.791L226.479 352.532L224.851 357.879C224.851 357.879 226.014 362.761 227.176 362.761C228.338 362.761 235.312 360.203 235.312 360.203L255.769 358.577L270.647 353.695L286.222 354.858C286.222 354.858 289.244 344.397 288.547 344.397C287.85 344.397 287.617 344.164 285.757 344.164C283.897 344.164 277.388 344.397 277.388 344.397L277.154 342.069L282.268 332.77L302.027 316.265L307.839 317.428L309.931 320.449L315.743 316.033L315.51 308.594L310.397 303.248L305.282 297.203L306.91 288.137L315.743 292.321C315.743 292.321 329.691 302.084 330.852 302.55C332.015 303.015 358.98 309.988 358.98 309.988L364.559 323.238L361.769 344.159L353.168 341.602L345.032 331.141C345.032 331.141 342.707 329.978 341.545 330.211C340.383 330.444 337.594 335.093 337.594 335.093L340.384 341.602L336.664 342.764L333.177 345.089L332.48 349.971L335.734 352.992C335.734 352.992 335.734 358.571 335.734 359.268C335.734 359.965 337.594 362.523 338.292 362.755C338.989 362.987 344.336 363.684 345.614 363.569C346.892 363.452 356.423 359.501 356.423 359.501C356.423 359.501 374.322 359.85 374.788 359.734C375.254 359.617 390.712 356.247 390.712 356.247L399.429 357.642C399.429 357.642 405.241 353.225 405.008 352.643C404.776 352.065 398.964 346.602 398.151 346.486ZM364.734 220.608C360.027 221.131 357.586 222.526 357.237 219.911C356.888 217.296 356.888 212.065 357.411 211.891C357.934 211.717 363.339 208.578 363.513 209.101C363.687 209.624 369.092 212.239 369.092 212.239L372.384 218.892C370.647 219.815 367.968 220.248 364.734 220.608Z" fill="#FF4B55"/>
<path d="M127.101 177.894C127.101 177.894 129.019 167.956 129.542 167.956C130.065 167.956 137.213 165.341 137.213 165.341L115.943 151.568C115.943 151.568 119.604 168.479 119.953 169.874C120.301 171.268 127.101 177.894 127.101 177.894Z" fill="#FF4B55"/>
<path d="M181.202 157.441C181.276 157.458 181.7 157.552 182.348 157.68L182.188 158.377C181.926 159.499 182.629 160.627 183.757 160.883C183.915 160.922 184.073 160.937 184.228 160.937C185.179 160.937 186.042 160.283 186.263 159.314L186.487 158.34C187.994 158.526 189.653 158.671 191.256 158.671C192.61 158.671 193.918 158.573 195.043 158.311C196.168 158.049 196.871 156.927 196.61 155.805C196.348 154.677 195.234 153.958 194.101 154.236C190.791 155.015 184.338 153.865 182.136 153.364C181.033 153.102 179.892 153.805 179.63 154.933C179.374 156.062 180.077 157.185 181.202 157.441Z" fill="#464655"/>
<path d="M388.332 191.217L393.604 207.315C393.888 208.176 394.691 208.754 395.592 208.754C395.622 208.754 395.652 208.754 395.685 208.754C396.622 208.71 397.417 208.051 397.63 207.136C401.488 190.606 409.207 164.459 414.664 160.188C415.424 159.594 415.677 158.565 415.282 157.682C414.89 156.81 413.956 156.309 412.997 156.484C411.88 156.691 385.415 161.846 367.002 189.463C366.531 190.171 366.533 191.092 367.008 191.795C367.485 192.498 368.334 192.825 369.169 192.672L384.501 189.502C382.354 194.678 380.985 199.232 380.511 200.905C373.529 196.656 365.655 195.9 360.194 197.314C353.961 198.948 348.723 202.921 345.818 208.216C343.592 212.274 343.004 216.731 344.203 220.442C345.596 224.752 349.311 230.113 355.569 232.221C359.715 233.629 366.414 233.941 375.246 228.475C375.246 228.517 375.253 228.556 375.252 228.597C375.192 232.084 373.403 234.927 369.927 237.058C363.018 241.291 350.905 241.574 342.931 237.674C332.416 232.541 316.607 229.619 307.775 228.294C313.251 226.548 319.872 226.056 327.828 227.879C327.936 227.907 328.041 227.864 328.149 227.872C328.202 227.876 328.243 227.934 328.297 227.934C328.355 227.934 328.4 227.872 328.458 227.868C328.939 227.829 329.405 227.683 329.758 227.341C329.764 227.335 329.765 227.328 329.769 227.322C329.771 227.32 329.775 227.321 329.775 227.321C329.785 227.311 329.782 227.297 329.789 227.289C330.127 226.938 330.276 226.487 330.318 226.015C330.328 225.902 330.341 225.815 330.333 225.703C330.326 225.608 330.366 225.518 330.346 225.424C330.322 225.304 328.003 213.427 334.386 205.243C338.222 200.323 344.496 197.637 353.033 197.251C353.168 197.244 353.279 197.168 353.407 197.136C353.592 197.092 353.776 197.065 353.943 196.973C354.095 196.888 354.202 196.756 354.329 196.635C354.435 196.536 354.566 196.476 354.652 196.351C354.671 196.326 354.672 196.294 354.688 196.266C354.702 196.243 354.73 196.233 354.744 196.209C354.782 196.144 354.774 196.068 354.804 196C354.898 195.791 354.964 195.581 354.986 195.36C354.997 195.254 354.997 195.157 354.99 195.051C354.978 194.815 354.924 194.593 354.834 194.375C354.812 194.32 354.823 194.258 354.795 194.205C354.626 193.873 338.21 161.046 364.956 139.127C365.826 138.413 365.974 137.139 365.297 136.245C364.616 135.357 363.355 135.15 362.428 135.798C336.02 154.338 299.522 156.338 285.056 156.338C259.255 156.338 242.954 166.053 235.218 186.032C234.415 188.109 233.845 190.57 233.368 193.206C233.626 189.509 232.95 186.269 231.282 183.559C228.901 179.695 225.259 178.077 223.622 177.515C223.623 176.567 223.615 175.628 223.588 174.707C226.414 174.272 229.768 176.466 230.874 177.397C231.261 177.724 231.744 177.898 232.23 177.898C232.551 177.898 232.876 177.822 233.172 177.67C233.923 177.288 234.376 176.498 234.316 175.66C233.632 165.931 227.032 161.203 222.504 159.603C226.496 156.431 230.751 151.24 233.358 142.774C233.608 141.956 233.339 141.069 232.674 140.535C232.01 139.995 231.083 139.914 230.342 140.328C230.271 140.368 226.012 142.674 219.61 144.575L220.195 136.972C220.252 136.204 219.885 135.462 219.231 135.049C218.58 134.63 217.747 134.613 217.079 134.995C216.971 135.055 206.259 141.067 195.334 144.241C187.088 142.168 176.356 140.554 172.287 144.792C171.306 145.81 170.393 147.467 170.62 150.033C163.6 148.568 147.484 146.17 137.701 152.496C136.93 152.991 136.575 153.934 136.824 154.817C137.074 155.7 137.87 156.321 138.788 156.343C141.893 156.419 146.693 157.133 148.696 158.457C147.813 160.838 146.353 165.883 147.628 170.748C143.382 171.978 138.927 172.168 133.509 169.237L138.232 168.078C139.079 167.871 139.708 167.158 139.812 166.29C139.912 165.424 139.466 164.585 138.692 164.187C138.572 164.122 126.662 157.927 116.757 147.515C116.195 146.932 115.343 146.719 114.561 146.981C113.787 147.248 113.24 147.94 113.161 148.752C113.076 149.591 111.301 169.384 126.332 181.121C126.708 181.41 127.163 181.562 127.621 181.562C127.907 181.562 128.193 181.502 128.465 181.382C129.168 181.072 129.647 180.401 129.707 179.633L130.29 172.156C137.789 176.646 143.998 176.217 149.324 174.598C149.992 175.616 150.841 176.586 151.912 177.475C152.084 177.618 152.32 177.773 152.559 177.93C149.136 185.943 142.339 188.009 142.048 188.089C141.201 188.334 140.594 189.081 140.533 189.958C140.47 190.835 140.961 191.657 141.764 192.017C142.27 192.24 153.219 196.975 165.491 192.605L165.298 194.005C165.216 194.593 165.391 195.192 165.78 195.645C166.167 196.103 166.731 196.37 167.327 196.381C167.379 196.381 167.518 196.387 167.735 196.387C169.144 196.387 173.818 196.28 179.117 195.063C178.316 202.549 173.755 211.47 168.903 220.883C162.335 233.634 155.015 248.015 155.132 262.537C152.626 259.293 149.506 254.235 147.963 247.52C147.429 245.188 147.075 243.096 146.754 241.184C145.972 236.558 145.296 232.559 142.562 228.8C139.47 224.551 135.098 215.064 135.288 209.884C135.468 205.095 132.33 202.278 129.142 201.608C128.912 201.561 128.695 201.62 128.467 201.593C127.712 200.072 125.668 197.159 120.97 196.824C119.839 196.672 118.815 197.609 118.733 198.764C118.651 199.914 119.518 200.916 120.67 200.997C122.309 201.113 123.325 201.739 123.949 202.363C122.414 203.152 121.172 204.468 120.307 206.153C117.506 204.539 114.676 204.135 112.511 204.63C111.95 204.757 111.527 205.06 111.042 205.289C109.625 204.55 105.851 203.143 101.303 206.035C100.328 206.651 100.038 207.947 100.66 208.923C101.057 209.55 101.736 209.893 102.428 209.893C102.81 209.893 103.199 209.789 103.548 209.566C105.172 208.535 106.559 208.4 107.577 208.53C106.831 209.912 106.408 211.434 106.48 212.852C106.625 215.669 108.253 217.854 110.77 218.78C107.768 219.352 105.224 220.746 103.865 222.632C103.645 222.938 103.6 223.286 103.442 223.609C101.53 223.807 98.589 225.093 96.73 229.024C96.235 230.065 96.681 231.313 97.724 231.808C98.015 231.944 98.318 232.01 98.618 232.01C99.403 232.01 100.154 231.569 100.512 230.812C101.341 229.062 102.315 228.369 103.043 228.052C105.03 234.606 111.491 233.114 115.388 232.201L116.949 231.847C119.134 231.411 122.986 237.791 124.021 241.931C124.74 244.808 123.509 248.328 119.629 254.484C117.273 258.232 117.951 260.946 118.937 262.563C118.957 262.596 118.989 262.614 119.009 262.645C118.383 262.833 117.612 262.968 116.57 262.83C115.444 262.602 114.369 263.473 114.214 264.618C114.058 265.762 114.86 266.819 116.004 266.972C116.538 267.048 117.042 267.081 117.519 267.081C119.952 267.081 121.573 266.25 122.547 265.57C123.908 266.152 125.308 266.371 126.343 266.291C129.227 266.052 131.182 263.524 132.502 260.385C136.351 281.607 145.196 301.313 146.733 304.637C146.423 312.156 138.307 313.921 137.956 313.998C137.054 314.183 136.379 314.935 136.294 315.856C136.209 316.771 136.73 317.633 137.58 317.981C141.111 319.424 144.2 320.003 146.883 320.003C155.159 320.003 159.534 314.544 160.912 312.441C167.024 310.312 174.189 305.328 176.986 303.289C181.65 306.784 185.527 308.721 186.822 309.327C184.569 331.511 171.562 346.496 167.757 350.426C165.18 348.95 159.489 345.305 157.61 340.962C155.832 336.858 152.535 335.702 149.846 335.942C148.943 334.776 146.916 332.6 144.074 332.287C142.677 332.14 140.557 332.396 138.402 334.553C137.584 335.371 137.584 336.694 138.402 337.511C139.216 338.329 140.54 338.334 141.36 337.517C142.542 336.335 143.346 336.406 143.608 336.443C144.414 336.529 145.193 337.112 145.808 337.712C144.283 339.012 143.338 340.831 143.491 342.817C143.599 344.212 144.122 345.524 144.859 346.744C143.335 347.537 141.499 348.838 140.29 350.896C140.247 350.97 140.197 351.087 140.152 351.169C137.654 351.328 133.158 353.091 132.458 358.911C132.322 360.061 133.139 361.101 134.286 361.237C134.373 361.248 134.455 361.254 134.54 361.254C135.584 361.254 136.488 360.475 136.616 359.412C136.866 357.328 137.875 356.325 138.822 355.824C138.798 356.682 138.869 357.575 139.177 358.508C139.9 360.704 141.606 362.485 144.154 363.87C143.885 364.728 143.709 365.642 143.686 366.631C142.341 367.31 140.357 368.575 139.341 370.729C138.581 372.337 138.534 374.134 139.202 375.932C139.515 376.776 140.313 377.294 141.164 377.294C141.407 377.294 141.654 377.25 141.894 377.164C142.979 376.761 143.528 375.556 143.125 374.473C142.76 373.498 142.948 372.893 143.123 372.522C143.432 371.863 144.047 371.309 144.674 370.879C145.45 372.272 146.622 373.333 148.19 373.851C148.906 374.085 149.65 374.2 150.397 374.2C152.886 374.2 155.41 372.941 157.028 370.752C158.965 368.126 162.754 369.63 163 369.734C170.922 372.611 181.625 370.442 188.103 366.803C191.696 364.781 204.356 365.872 211.495 367.042C212.053 367.118 212.647 366.982 213.108 366.639C213.566 366.285 213.857 365.762 213.915 365.185C214.637 357.961 205.29 356.043 197.78 354.501C195.734 354.082 193.787 353.683 191.95 352.899C191.217 348.661 202.231 333.231 212.725 325.516C215.297 323.626 217.367 322.868 218.404 323.424C219.886 324.236 220.357 328.017 220.207 330.316C220.203 330.377 220.238 330.429 220.239 330.489C220.241 330.717 220.284 330.937 220.364 331.158C220.398 331.252 220.424 331.339 220.47 331.426C220.499 331.482 220.502 331.543 220.536 331.596C220.656 331.78 220.818 331.915 220.98 332.047C221.012 332.073 221.023 332.116 221.057 332.141C221.065 332.147 221.075 332.145 221.075 332.145C221.346 332.338 221.644 332.452 221.959 332.504C222.04 332.517 222.116 332.505 222.197 332.508C222.431 332.52 222.657 332.496 222.887 332.426C222.941 332.411 222.998 332.427 223.051 332.407C223.221 332.341 223.405 332.247 223.578 332.176C224.694 331.604 226.585 332.242 227.908 332.92C227.662 333.683 227.513 334.479 227.584 335.343C227.671 336.422 228.007 337.495 228.53 338.525C226.457 338.291 224.518 338.525 223.114 339.604C222.613 339.988 222.218 340.472 221.819 340.95C218.874 341.241 215.191 343.097 214.316 347.482C214.09 348.615 214.822 349.715 215.956 349.945C216.095 349.973 216.234 349.984 216.37 349.984C217.345 349.984 218.219 349.298 218.419 348.3C218.629 347.253 219.165 346.619 219.755 346.142C219.737 346.906 219.819 347.663 220.045 348.376C220.454 349.67 221.56 351.6 224.372 352.679C224.119 353.109 223.901 353.567 223.708 354.035C221.614 354.708 218.46 356.88 218.46 361.489C218.46 362.644 219.397 363.581 220.552 363.581C221.707 363.581 222.644 362.644 222.644 361.489C222.644 360.675 222.846 360.084 223.112 359.595C223.179 359.897 223.228 360.207 223.336 360.491C223.842 361.815 225.365 364.299 229.631 364.299C231.037 364.299 232.736 364.032 234.796 363.362C239.789 361.744 243.328 361.574 246.75 361.406C250.842 361.21 254.707 361.019 260.137 358.502C267.96 354.868 277.651 356.1 282.728 357.161C285.479 357.728 288.171 356.376 289.279 353.854C289.66 352.994 289.909 352.241 290.172 351.476C292.539 351.76 293.029 354.06 293.093 354.567C293.21 355.635 294.115 356.431 295.169 356.431C295.24 356.431 295.314 356.425 295.386 356.42C296.536 356.3 297.372 355.27 297.252 354.12C297.026 351.934 295.406 348.012 291.071 347.33C291.126 345.846 290.837 344.624 290.11 343.724C289.314 342.743 287.732 341.714 284.631 342.351C281.422 343.015 279.946 343.147 279.28 343.087C279.38 342.679 279.618 341.954 280.17 340.717C282.039 336.511 294.448 325.418 302.573 318.777C304.532 318.336 307.017 318.308 307.59 318.962C307.792 319.185 307.792 319.954 307.334 321.169C307.007 322.03 307.282 323 308.007 323.561C308.729 324.123 309.737 324.149 310.489 323.626C310.813 323.398 318.403 318.008 318.251 311.444C318.172 308.126 316.238 305.244 312.5 302.879C309.332 300.88 307.512 298.563 307.088 296.003C306.644 293.325 307.786 290.948 308.549 289.682C311.546 291.119 314.554 292.976 317.549 295.452C335.216 310.061 350.251 312.387 358.372 312.349C360.076 316.113 365.078 328.954 360.808 342.144C358.536 341.741 354.074 340.291 351.012 335.187C348.035 330.229 344.463 328.987 341.987 328.823C338.138 328.523 334.054 330.713 330.845 334.723C330.159 335.584 330.254 336.826 331.06 337.567C331.869 338.313 333.119 338.309 333.912 337.556C334.446 337.049 335.44 336.434 335.868 336.766L336.302 337.975C336.534 338.645 336.771 339.321 337.053 339.974C335.389 340.219 333.787 340.9 332.537 342.317C331.713 343.251 331.194 344.329 330.819 345.439C326.987 346.124 324.899 349.031 324.811 349.165C324.173 350.118 324.433 351.398 325.38 352.042C325.736 352.287 326.146 352.407 326.549 352.407C327.217 352.407 327.873 352.091 328.281 351.502C328.321 351.448 329.094 350.4 330.477 349.813C330.65 350.601 330.933 351.363 331.362 352.057C332.084 353.221 333.109 354 334.272 354.415C334.115 355.02 333.981 355.68 333.894 356.39C333.85 356.405 333.804 356.398 333.759 356.415C328.749 358.524 329.771 364.75 331.01 367.747C331.345 368.554 332.121 369.038 332.941 369.038C333.208 369.038 333.477 368.984 333.737 368.88C334.805 368.439 335.314 367.218 334.878 366.15C334.863 366.11 333.687 363.035 334.443 361.284C334.463 361.331 334.468 361.381 334.488 361.427C335.354 363.383 337.024 364.778 339.316 365.465C340.444 365.803 341.523 365.945 342.555 365.945C345.979 365.945 348.885 364.359 351.332 363.02C353.237 361.979 355.037 361.026 356.456 361.124C357.489 361.222 358.671 361.408 359.967 361.608C364.86 362.371 371.566 363.406 378.221 361.265C379.46 360.868 380.582 360.48 381.61 360.126C387.018 358.273 389.038 357.581 392.343 359.462C396.345 361.751 401.504 360.213 404.163 357.409C404.996 356.53 405.476 355.55 405.734 354.557C407.099 355.101 408.205 355.688 408.382 356.015C407.992 357.105 408.559 358.298 409.649 358.69C409.881 358.772 410.118 358.81 410.352 358.81C411.211 358.81 412.016 358.276 412.322 357.421C412.715 356.326 412.619 355.198 412.053 354.163C410.67 351.645 406.622 350.293 404.595 349.756C401.247 345.207 396.143 343.79 387.71 345.124C387.375 345.173 387.113 345.113 386.825 344.874C383.746 342.385 383.069 329.45 382.665 321.729C382.341 315.551 382.12 311.966 381.172 310.244C381.656 309.847 384.305 309.797 385.955 311.001C386.751 311.589 386.829 312.118 386.639 312.717C386.606 312.804 386.576 312.886 386.546 312.967C386.138 314.035 386.666 315.239 387.731 315.658C388.796 316.066 390.003 315.565 390.436 314.503C390.499 314.356 390.553 314.203 390.603 314.056C391.349 311.936 394.405 302.336 390.805 296.256C389.187 293.526 386.552 291.897 382.971 291.413C373.845 290.183 366.89 284.352 362.214 274.19C369.299 271.701 390.158 262.246 394.058 236.15C396.649 218.803 390.432 209.088 384.758 203.994C384.487 203.75 384.193 203.565 383.916 203.335C384.08 203.122 384.289 202.947 384.363 202.671C384.388 202.578 385.822 197.301 388.332 191.217ZM373.56 187.488C385.484 171.971 400.107 165.063 408.015 162.273C402.828 171.617 397.886 189.095 395.31 199.076L390.957 185.782C390.94 185.73 390.886 185.708 390.867 185.658C392.143 183.14 393.578 180.702 395.16 178.644C395.863 177.729 395.691 176.416 394.776 175.713C393.858 175.005 392.548 175.179 391.842 176.095C389.867 178.663 388.127 181.708 386.625 184.785L373.56 187.488ZM125.869 175.044C119.424 168.217 117.745 159.358 117.361 153.976C122.875 159.086 128.437 162.912 132.188 165.243L128.854 166.062C128.217 165.551 127.592 165.079 126.926 164.481C126.073 163.713 124.752 163.789 123.973 164.639C123.199 165.5 123.27 166.824 124.131 167.597C124.878 168.268 125.588 168.784 126.31 169.359L125.869 175.044ZM283.681 244.058C279.771 233.624 267.97 208.644 239.06 187.744C239.083 187.683 239.098 187.603 239.121 187.543C239.492 186.585 239.976 185.76 240.391 184.854C284.163 196.04 310.804 214.237 321.447 222.709C299.703 221.106 288.201 236.083 283.681 244.058ZM331.066 202.689C326.445 208.629 325.638 215.864 325.729 220.749C316.131 212.714 289.152 193.156 242.23 181.022C242.837 179.969 243.564 179.053 244.243 178.082C244.394 178.117 244.54 178.171 244.7 178.181C302.43 175.7 334.639 188.097 346.435 193.939C339.816 195.281 334.601 198.144 331.066 202.689ZM285.058 160.519C297.818 160.519 327.277 158.989 352.685 146.397C341.779 162.824 345.699 181.263 348.781 190.373C337.08 184.38 305.392 171.932 247.595 173.925C255.933 164.995 268.26 160.519 285.058 160.519ZM235.988 205.097C236.509 200.368 237.029 195.87 237.85 192.081C265.634 212.677 276.824 237.573 280.134 246.6C273.31 245.07 267.129 245.566 261.801 248.313C257.441 250.564 254.399 253.872 252.314 256.901C251.385 246.373 247.909 227.587 235.214 212.795C235.173 212.748 235.116 212.727 235.072 212.684C235.412 210.14 235.713 207.59 235.988 205.097ZM233.345 268.968C223.623 266.702 219.539 256.905 219.351 256.443C219.095 255.811 218.548 255.337 217.882 255.184C217.724 255.151 217.566 255.13 217.408 255.13C216.898 255.13 216.401 255.321 216.011 255.67C209.026 261.952 200.481 263.608 196.214 264.044C199.586 253.452 209.069 247.95 221.826 240.545L222.414 240.202C225.594 238.356 227.888 235.554 229.682 232.258C229.68 237.523 229.962 243.388 230.929 248.325C231.125 249.323 231.999 250.014 232.98 250.014C233.114 250.014 233.249 250.003 233.386 249.975C234.519 249.752 235.257 248.651 235.037 247.518C232.944 236.841 234.269 220.781 234.461 218.618C246.629 235.043 248.24 255.771 248.422 262.531C241.285 261.296 237.307 255.749 237.265 255.692C236.875 255.125 236.235 254.787 235.551 254.787H235.543C234.862 254.787 234.224 255.114 233.833 255.67C230.741 260.049 231.948 265.448 233.345 268.968ZM225.935 211.727C224.314 209.733 222.134 207.538 219.974 206.574C220.462 204.625 220.92 202.551 221.336 200.372C223.575 202.211 226.963 205.998 225.935 211.727ZM216.511 219.206C217.138 219.298 220.95 220.035 222.534 224.93C220.76 224.624 218.672 224.785 216.565 225.92C216.228 223.958 216.162 221.72 216.511 219.206ZM223.982 229.935C224.587 230.401 225.39 230.458 226.079 230.16C224.865 232.413 223.34 234.276 221.463 235.676C220.438 234.641 218.929 232.789 217.792 230.107C220.892 227.849 223.672 229.711 223.982 229.935ZM231.193 199.093C231.923 198.905 232.488 198.326 232.678 197.595C232.373 199.871 232.094 202.213 231.827 204.639C230.951 212.594 229.995 221.209 227.284 227.749C226.515 218.957 220.777 215.721 217.417 215.137C217.596 214.53 217.758 213.932 217.986 213.299C218.283 212.473 218.576 211.584 218.863 210.646C220.775 211.852 223.417 215.117 224.898 217.39C225.288 217.989 225.946 218.343 226.652 218.343C226.701 218.343 226.75 218.343 226.799 218.337C227.559 218.283 228.229 217.819 228.548 217.133C233.555 206.363 226.814 198.683 222.123 195.786C222.241 195.019 222.359 194.253 222.466 193.474C225.186 194.752 228.088 197.384 229.134 198.5C229.535 198.93 230.091 199.164 230.662 199.164C230.839 199.164 231.016 199.142 231.193 199.093ZM227.72 185.75C228.913 187.69 229.415 190.076 229.224 192.876C227.525 191.466 225.282 189.942 222.984 189.13C223.231 186.752 223.417 184.365 223.524 182.009C224.794 182.643 226.506 183.78 227.72 185.75ZM229.231 171.535C227.513 170.785 225.447 170.276 223.326 170.508C223.113 168.18 222.773 166.015 222.299 164.055C224.499 165.089 227.659 167.25 229.231 171.535ZM215.731 140.437L215.328 145.675C212.082 146.398 208.512 146.941 204.728 147.029C204.161 146.833 203.371 146.568 202.452 146.272C207.838 144.28 212.675 141.991 215.731 140.437ZM154.593 174.254C154.163 173.894 153.784 173.512 153.454 173.115C153.866 172.952 154.274 172.788 154.674 172.631C157.578 171.465 160.318 170.365 162.955 170.218C168.881 169.853 170.61 172.195 170.997 172.915C171.392 173.651 171.329 174.299 171.095 174.62C170.109 175.961 168.528 176.766 166.395 177.028C161.523 177.583 155.723 175.197 154.593 174.254ZM169.292 187.527C168.66 187.069 167.827 186.998 167.137 187.358C159.959 190.943 152.816 190.491 148.28 189.586C151.003 187.73 154.197 184.617 156.332 179.702C158.778 180.589 161.817 181.304 164.823 181.304C165.52 181.304 166.216 181.261 166.899 181.178C170.173 180.781 172.788 179.369 174.464 177.103C175.725 175.387 175.807 173.017 174.677 170.925C173.8 169.302 170.882 165.559 162.727 166.043C159.401 166.223 156.208 167.503 153.119 168.745C152.624 168.941 152.127 169.142 151.635 169.333C150.513 164.381 153.019 158.921 153.054 158.85C153.364 158.186 153.308 157.407 152.902 156.796C151.739 155.047 149.423 153.958 146.988 153.276C158.266 150.917 172.745 154.812 172.922 154.862C173.696 155.064 174.508 154.84 175.036 154.241C175.565 153.653 175.715 152.813 175.423 152.073C174.581 149.953 174.544 148.477 175.308 147.681C178.561 144.292 193.874 147.642 203.699 151.097C203.933 151.179 204.194 151.157 204.426 151.217C214.108 151.065 222.569 148.296 227.579 146.226C221.924 158.506 212.305 160.233 211.853 160.31C210.718 160.49 209.941 161.552 210.115 162.691C210.289 163.835 211.36 164.636 212.502 164.445C212.723 164.41 214.767 164.054 217.551 162.715C221.694 174.177 218.449 199.657 214.049 211.878C209.125 225.559 214.587 234.247 217.931 237.976C204.717 245.664 194.387 252.196 191.495 265.616C191.491 265.627 191.481 265.636 191.477 265.648C191.407 265.866 190.7 268.218 189.884 272.412C184.763 269.009 175.22 255.04 180.357 238.667C181.757 234.199 183.403 229.829 184.994 225.602C189.722 213.05 194.176 201.184 190.86 190.071C192.154 189.143 193.366 188.102 194.414 186.881C198.062 182.632 199.336 177.199 198.203 170.732C198.007 169.588 196.925 168.814 195.781 169.033C194.646 169.229 193.882 170.313 194.084 171.452C195.002 176.699 194.073 180.85 191.243 184.152C185.773 190.538 174.65 191.856 169.788 192.123L170.148 189.508C170.251 188.742 169.921 187.978 169.292 187.527ZM188.073 282.921C184.47 287.326 177.157 293.184 174.317 295.398C171.695 292.898 169.069 289.93 166.755 286.453C177.46 284.638 183.885 277.993 186.294 274.913C187.096 275.595 187.86 276.143 188.534 276.503C188.729 276.608 188.939 276.619 189.145 276.655C188.864 278.447 188.597 280.478 188.344 282.7C188.255 282.776 188.15 282.827 188.073 282.921ZM162.611 244.789C164.296 245.263 168.666 246.379 172.698 246.379C173.436 246.379 174.097 246.243 174.79 246.157C174.641 248.732 174.768 251.212 175.129 253.571C171.793 255.743 164.019 255.926 159.821 255.746C160.382 252.083 161.345 248.422 162.611 244.789ZM167.848 232.303C169.39 232.672 172.413 233.286 175.466 233.286C176.258 233.286 177.046 233.239 177.813 233.139C177.321 234.558 176.818 235.965 176.362 237.415C175.882 238.947 175.55 240.449 175.283 241.936C175.268 241.938 175.252 241.934 175.237 241.937C172.132 242.704 166.803 241.596 164.082 240.855C165.237 237.969 166.497 235.11 167.848 232.303ZM172.629 222.793C173.17 221.743 173.703 220.703 174.233 219.666C176.054 220.104 179.644 220.927 182.158 221.24C181.799 222.2 181.445 223.153 181.077 224.134C180.521 225.609 179.963 227.128 179.404 228.638C179.145 228.616 178.877 228.637 178.614 228.721C176.135 229.487 172.261 228.964 169.752 228.442C170.712 226.53 171.678 224.64 172.629 222.793ZM179.266 209.141C180.772 209.711 183.183 210.47 185.617 210.47C185.693 210.47 185.763 210.437 185.84 210.436C185.21 212.624 184.453 214.88 183.634 217.179C182.469 217.166 179.052 216.487 176.167 215.818C177.288 213.554 178.325 211.329 179.266 209.141ZM182.157 201.145C183.34 201.228 184.436 201.283 185.361 201.283C186.274 201.283 187.001 201.223 187.662 201.142C187.516 202.767 187.284 204.416 186.926 206.101C185.338 206.571 182.743 205.962 180.821 205.251C181.333 203.862 181.78 202.493 182.157 201.145ZM162.506 259.99C166.513 259.99 172.118 259.533 175.989 257.735C176.532 259.715 177.216 261.581 177.997 263.317C170.809 268.311 162.779 269.46 159.938 269.696C159.626 267.966 159.4 266.176 159.292 264.311C159.208 262.851 159.264 261.384 159.349 259.916C160.163 259.953 161.234 259.99 162.506 259.99ZM179.943 267.047C181.023 268.882 182.173 270.524 183.328 271.899C181.549 274.257 175.277 281.466 164.471 282.637C163.03 279.951 161.815 277.009 160.909 273.817C164.555 273.46 172.513 272.049 179.943 267.047ZM187.079 192.313C187.453 193.827 187.668 195.367 187.747 196.93C187.216 197.1 185.231 197.116 183.088 197.004C183.26 195.93 183.358 194.875 183.402 193.835C184.642 193.408 185.876 192.897 187.079 192.313ZM158.905 308.686C158.363 308.86 157.911 309.242 157.657 309.749C157.485 310.092 153.942 316.979 144.592 315.634C147.899 313.455 150.928 309.788 150.928 304.181C150.928 303.871 150.86 303.565 150.726 303.287C150.59 302.998 136.98 273.969 135.113 248.003C135.034 246.913 134.13 246.069 133.037 246.063H133.026C131.939 246.063 131.032 246.896 130.942 247.981C130.4 254.513 128.237 261.923 125.995 262.108C125.17 262.195 123.239 261.574 122.514 260.381C121.974 259.493 122.198 258.256 123.173 256.709C126.979 250.661 129.27 245.666 128.082 240.909C127.088 236.927 122.438 226.455 116.088 227.74L114.432 228.116C109.035 229.396 107.646 229.123 106.976 226.683C106.809 226.073 106.9 225.577 107.265 225.07C108.181 223.796 110.523 222.842 113.098 222.694C117.928 222.432 119.854 224.492 119.905 224.552C120.543 225.326 121.63 225.533 122.507 225.07C123.384 224.601 123.812 223.577 123.525 222.624C123.443 222.357 121.466 216.07 113.057 215.046C111.169 214.818 110.714 213.603 110.663 212.633C110.581 211.025 111.598 209.119 113.441 208.699C116.748 207.963 122.919 210.769 125.593 221.465C125.873 222.593 127.034 223.242 128.129 222.991C129.251 222.707 129.932 221.574 129.652 220.452C128.283 214.978 126.065 211.225 123.585 208.696C123.628 208.619 123.693 208.561 123.727 208.476C124.73 205.926 126.795 205.397 128.288 205.698C129.713 205.998 131.206 207.213 131.113 209.724C130.854 216.655 136.332 227.338 139.181 231.256C141.338 234.22 141.881 237.429 142.629 241.874C142.964 243.857 143.332 246.025 143.888 248.451C146.662 260.524 153.953 267.839 155.668 269.429C157.932 283.95 166.112 294.091 173.612 300.544C170.382 302.835 163.961 307.109 158.905 308.686ZM177.494 298.228C179.909 296.327 184.165 292.85 187.732 289.373C187.432 293.448 187.212 297.924 187.192 303.008C187.19 303.602 187.14 304.169 187.122 304.754C185.055 303.645 181.471 301.513 177.494 298.228ZM306.724 284.284L310.368 273.493C313.931 274.758 317.289 276.206 320.445 277.79L313.486 287.505C311.274 286.21 309.02 285.137 306.724 284.284ZM302.723 283.046C300.769 282.544 298.791 282.175 296.788 281.981L298.142 270.176C298.629 270.268 299.127 270.319 299.61 270.422C301.947 270.926 304.19 271.538 306.385 272.2L302.723 283.046ZM292.597 281.804C290.532 281.823 288.446 282.009 286.34 282.345L285.19 269.125C288.147 269.085 291.098 269.21 294.003 269.537L292.597 281.804ZM281.006 269.298L282.213 283.186C280.054 283.734 277.874 284.472 275.682 285.345L271.99 270.281C274.95 269.826 277.963 269.487 281.006 269.298ZM274.568 309.49C272.89 308.899 271.317 308.097 269.83 307.208L277.309 293.012C277.484 293.212 277.674 293.383 277.82 293.627C278.564 294.88 278.675 296.531 278.152 298.536C277.457 301.202 276.21 305.128 274.568 309.49ZM265.297 295.577C267.887 293.85 270.734 292.195 273.771 290.755L266.344 304.852C263.486 302.64 261.271 300.331 260.018 298.89C261.762 297.85 263.524 296.758 265.297 295.577ZM267.855 270.985L271.794 287.056C269.776 288.028 267.745 289.137 265.705 290.381L259.646 272.804C262.263 272.135 265.023 271.524 267.855 270.985ZM255.598 273.899L261.984 292.423C262.013 292.506 262.094 292.543 262.132 292.619C259.581 294.288 257.058 295.781 254.578 297.155L248.392 276.155C250.596 275.41 253 274.645 255.598 273.899ZM244.437 277.546L250.796 299.135C250.8 299.15 250.817 299.157 250.821 299.171C248.043 300.593 245.38 301.85 242.93 302.912L236.012 281.319C236.1 281.169 236.197 280.975 236.283 280.835C237.431 280.318 240.328 279.059 244.437 277.546ZM233.35 286.71L239.056 304.52C234.701 306.248 231.299 307.349 229.606 307.855C228.518 300.93 230.792 292.737 233.35 286.71ZM232.117 324.982C233.534 321.577 233.115 317.381 230.837 312.173C230.796 312.08 230.755 311.988 230.717 311.889C234.228 310.863 244.498 307.512 256.313 300.989C258.424 303.545 264.669 310.374 273.041 313.372C268.287 325 261.19 338.034 254.04 339.19C248.047 340.138 244.802 336.564 241.669 333.082C238.937 330.053 235.834 326.62 231.431 328.941C231.088 329.122 230.83 329.354 230.531 329.561C230.19 329.362 229.72 329.117 229.165 328.863C230.366 327.814 231.447 326.595 232.117 324.982ZM302.953 296.629C303.565 300.437 306.026 303.729 310.268 306.414C312.744 307.978 314.022 309.699 314.068 311.53C314.117 313.486 312.84 315.523 311.393 317.174C311.194 316.766 310.952 316.428 310.703 316.156C308.034 313.192 302.229 314.527 301.09 314.826C300.801 314.897 300.532 315.039 300.3 315.223C298.156 316.966 279.256 332.467 276.346 339.01C275.256 341.462 274.317 344.006 275.788 345.832C277.322 347.739 280.256 347.527 285.486 346.442C285.935 346.349 286.259 346.322 286.478 346.322C286.728 346.322 286.851 346.322 286.851 346.35C287.028 346.65 287.146 348.333 285.451 352.157C285.143 352.849 284.364 353.214 283.582 353.056C278 351.901 267.294 350.571 258.375 354.701C253.686 356.875 250.377 357.033 246.547 357.218C243.021 357.387 239.028 357.583 233.504 359.375C232.232 359.783 228.012 360.988 227.241 358.983C226.597 357.298 227.852 354.35 229.184 353.485C237.418 353.805 240.774 353.808 240.774 353.808C241.929 353.808 242.866 352.871 242.866 351.716C242.866 350.561 241.929 349.624 240.774 349.624C240.739 349.624 237.268 349.624 228.654 349.275C227.167 349.215 224.587 348.856 224.032 347.101C223.618 345.799 224.348 343.919 225.661 342.917C226.8 342.034 230.638 343.004 234.389 344.622C235.58 345.373 236.819 345.978 238.02 346.376C239.038 346.741 240.164 346.224 240.597 345.232C241.033 344.24 240.641 343.086 239.692 342.563C238.948 342.149 237.733 341.511 236.268 340.858C233.833 339.207 231.904 336.843 231.754 334.995C231.7 334.331 231.833 333.459 233.38 332.647C234.723 331.944 235.685 332.707 238.558 335.889C241.895 339.589 246.452 344.612 254.707 343.321C270.78 340.717 282.093 300.002 282.199 299.592C283.013 296.47 282.752 293.746 281.417 291.496C280.646 290.195 279.654 289.35 278.707 288.704C286.599 285.864 295.496 284.893 304.63 288.057C303.587 289.975 302.382 293.087 302.953 296.629ZM317.012 289.768L324.165 279.783C326.771 281.246 329.218 282.782 331.517 284.37L322.341 293.852C321.628 293.297 320.936 292.819 320.214 292.221C319.158 291.348 318.091 290.53 317.012 289.768ZM334.945 302.007L344.135 294.686C345.905 296.396 347.519 298.067 348.945 299.644L341.514 304.925C339.427 304.145 337.236 303.178 334.945 302.007ZM330.951 299.842C329.238 298.824 327.481 297.685 325.684 296.415L334.949 286.841C337.126 288.488 339.168 290.155 341.031 291.81L330.951 299.842ZM346.493 306.52L351.689 302.826C353.393 304.879 354.771 306.702 355.765 308.104C353.181 307.951 350.028 307.467 346.493 306.52ZM389.919 235.526C386.222 260.277 366.388 268.482 360.482 270.396C355.518 259.228 347.287 249.833 341.809 246.994C340.791 246.471 339.524 246.868 338.99 247.888C338.459 248.918 338.86 250.177 339.886 250.711C344.059 252.874 352.509 261.673 357.389 273.697C362.655 286.669 371.075 294.025 382.411 295.561C384.691 295.867 386.258 296.792 387.205 298.384C388.594 300.727 388.524 304.247 388.014 307.341C385.345 305.646 380.999 305.102 378.632 306.916C377.156 308.044 376.733 309.837 377.499 311.71C378.017 312.979 378.256 317.534 378.488 321.942C379.156 334.697 380.003 344.727 384.193 348.121C385.402 349.102 386.86 349.505 388.366 349.249C396.636 347.941 399.655 349.696 401.624 352.741C401.744 352.926 402.108 353.487 401.129 354.529C399.642 356.098 396.522 357.018 394.422 355.831C389.472 352.997 385.999 354.191 380.254 356.169C379.249 356.512 378.149 356.888 376.936 357.286C371.231 359.128 365.348 358.212 360.613 357.471C359.224 357.258 357.959 357.063 356.857 356.959C354.16 356.703 351.703 358.044 349.325 359.346C346.446 360.921 343.727 362.43 340.523 361.455C339.036 361.008 338.553 360.262 338.316 359.734C337.613 358.161 338.133 355.88 338.634 354.429C340.428 354.113 342.041 354.172 343.817 354.357C346.378 354.613 349.292 354.919 352.965 353.567C354.05 353.17 354.603 351.965 354.204 350.881C353.803 349.796 352.607 349.258 351.515 349.644C348.755 350.651 346.658 350.451 344.247 350.195C342.049 349.972 339.569 349.721 336.589 350.511C336.134 350.631 335.448 350.702 334.922 349.852C334.23 348.741 334.26 346.686 335.677 345.085C336.767 343.848 338.878 343.887 340.828 344.3C341.92 344.91 343.31 345.411 345.105 345.754C346.129 345.971 347.145 345.357 347.481 344.37C347.816 343.378 347.37 342.294 346.435 341.825C346.277 341.749 344.632 340.942 342.438 340.387C341.283 339.548 340.871 338.365 340.253 336.594L339.787 335.292C339.509 334.55 339.153 333.99 338.763 333.565C339.768 333.129 340.751 332.933 341.708 332.993C343.86 333.14 345.783 334.601 347.423 337.341C352.852 346.385 361.856 346.489 362.237 346.489C363.107 346.489 363.886 345.949 364.193 345.137C370.959 327.256 361.913 309.968 361.524 309.239C361.517 309.228 361.506 309.221 361.5 309.209C361.494 309.199 361.497 309.188 361.491 309.178C360.688 307.789 341.378 275.148 300.495 266.338C271.044 259.969 235.456 276.587 233.955 277.3C233.601 277.463 233.304 277.725 233.091 278.051C228.858 284.594 221.799 301.958 227.002 313.852C228.775 317.906 229.198 321.109 228.256 323.381C227.624 324.902 226.392 326.122 224.298 327.25C224.018 324.635 223.116 321.23 220.424 319.748C217.792 318.31 214.37 319.11 210.247 322.14C200.486 329.316 186.56 346.265 187.83 353.604C188.14 355.407 189.271 356.688 191.009 357.211C192.69 357.712 194.76 358.142 196.939 358.589C201.249 359.477 206.332 360.518 208.587 362.386C202.501 361.607 190.711 360.528 186.05 363.143C180.553 366.238 171.103 368.21 164.524 365.829C162.132 364.832 156.777 364.041 153.663 368.259C152.502 369.834 150.68 370.264 149.503 369.867C148.136 369.42 147.849 367.998 147.849 366.887C147.849 362.033 152.521 361.657 153.951 361.657C155.106 361.657 156.043 360.72 156.043 359.565C156.043 358.41 155.106 357.473 153.951 357.473C150.747 357.473 148.11 358.517 146.301 360.293C144.628 359.419 143.548 358.386 143.156 357.194C142.62 355.565 143.39 353.876 143.9 353.015C144.869 351.369 146.584 350.495 147.634 350.071C150.009 352.302 152.773 353.899 154.16 354.507C155.206 354.959 156.445 354.485 156.916 353.428C157.379 352.371 156.894 351.134 155.837 350.672C153.036 349.446 147.912 345.665 147.67 342.494C147.581 341.333 148.651 340.45 149.757 340.173C150.555 339.971 152.565 339.813 153.775 342.608C156.834 349.686 166.782 354.665 167.205 354.872C167.5 355.019 167.815 355.091 168.131 355.091C168.641 355.091 169.142 354.906 169.537 354.551C170.422 353.744 191.259 334.501 191.38 303.021C191.452 283.991 194.098 272.12 195.081 268.344C198.779 268.166 208.232 267.028 216.721 260.518C219.178 264.871 225.414 273.321 236.891 273.61C236.908 273.61 236.926 273.61 236.943 273.61C237.694 273.61 238.39 273.202 238.763 272.547C239.145 271.872 239.123 271.043 238.709 270.395C238.668 270.33 235.454 265.187 236.187 260.752C238.824 263.297 243.626 266.739 250.47 266.985H250.471H250.472C250.496 266.985 250.521 266.985 250.546 266.985C250.908 266.985 251.233 266.867 251.532 266.701C251.668 266.625 251.788 266.567 251.902 266.46C252.17 266.228 252.365 265.931 252.489 265.588C252.5 265.556 252.533 265.541 252.543 265.507C252.571 265.414 255.466 256.3 263.729 252.033C269.006 249.303 275.369 249.134 282.667 251.538C282.847 251.596 283.028 251.594 283.208 251.603C283.249 251.605 283.28 251.642 283.321 251.642C283.353 251.642 283.386 251.631 283.418 251.629C283.472 251.627 283.523 251.615 283.577 251.608C283.67 251.597 283.762 251.597 283.855 251.572C283.919 251.555 283.965 251.51 284.027 251.487C284.165 251.436 284.29 251.374 284.414 251.296C284.523 251.228 284.624 251.157 284.717 251.071C284.816 250.982 284.898 250.881 284.979 250.773C285.06 250.664 285.13 250.555 285.189 250.432C285.217 250.376 285.263 250.335 285.285 250.274C285.563 249.513 289.891 238.214 300.681 231.546C300.72 231.553 300.75 231.577 300.79 231.58C301.049 231.608 326.83 234.462 341.099 241.43C345.45 243.555 350.759 244.607 356.014 244.607C361.947 244.607 367.807 243.266 372.119 240.625C376.826 237.743 379.358 233.603 379.441 228.666C379.613 218.543 373.382 210.752 367.433 208.567C363.701 207.2 360.107 208.022 357.836 210.795C355.008 214.239 355.175 218.7 358.233 221.408C361.407 224.22 367.269 224.666 373.134 219.479C373.82 220.811 374.369 222.282 374.739 223.853C368.123 228.426 361.951 229.95 356.912 228.251C352.125 226.638 349.271 222.492 348.193 219.152C347.346 216.531 347.822 213.273 349.495 210.222C351.849 205.928 356.137 202.698 361.258 201.364C366.598 199.964 375.356 201.168 381.97 207.106C386.873 211.516 392.237 220.02 389.919 235.526ZM370.763 215.977C366.653 219.846 362.869 219.933 361.002 218.277C359.629 217.062 359.654 215.166 361.065 213.455C361.901 212.437 362.936 212.093 363.942 212.093C364.667 212.093 365.378 212.273 365.988 212.496C367.644 213.106 369.308 214.316 370.763 215.977Z" fill="#464655"/>
</g>
<defs>
<clipPath id="clip0">
<rect width="512.001" height="512.001" fill="white"/>
</clipPath>
</defs>
</svg>
