<svg width="50" height="50" viewBox="0 0 50 50" fill="none" xmlns="http://www.w3.org/2000/svg">
<path d="M25 50C38.8071 50 50 38.8071 50 25C50 11.1929 38.8071 0 25 0C11.1929 0 0 11.1929 0 25C0 38.8071 11.1929 50 25 50Z" fill="#FF9800"/>
<path d="M24.8314 25.0877C29.6881 25.0877 33.6253 21.1505 33.6253 16.2938C33.6253 11.4371 29.6882 7.5 24.8314 7.5C19.9747 7.5 16.0376 11.4371 16.0376 16.2939C16.0436 21.1481 19.9772 25.0817 24.8314 25.0877ZM24.8314 11.5587C27.4465 11.5587 29.5666 13.6787 29.5666 16.2939C29.5666 18.9091 27.4466 21.029 24.8314 21.029C22.2162 21.029 20.0962 18.9091 20.0962 16.2939C20.0962 13.6787 22.2163 11.5587 24.8314 11.5587Z" fill="white"/>
<path d="M33.3837 29.2544C34.3393 28.625 34.9152 27.5577 34.9165 26.4133C34.9298 25.4636 34.3939 24.5915 33.5406 24.1743C32.6639 23.7364 31.6145 23.835 30.8348 24.4286C27.2211 27.0632 22.3198 27.0632 18.706 24.4286C17.9251 23.8381 16.8775 23.7396 16.0002 24.1743C15.1473 24.5914 14.6111 25.4626 14.623 26.4119C14.625 27.5561 15.2007 28.6231 16.1559 29.253C17.3813 30.068 18.7159 30.7057 20.1199 31.1471C20.358 31.2211 20.6037 31.2896 20.8572 31.3528L16.7688 35.3506C15.6963 36.3912 15.6703 38.1042 16.7109 39.1768C17.7516 40.2493 19.4645 40.2752 20.5371 39.2346C20.5594 39.2129 20.5814 39.1909 20.6029 39.1685L24.7699 34.8554L28.945 39.1766C29.9847 40.2499 31.6977 40.2772 32.771 39.2375C33.8444 38.1978 33.8716 36.4847 32.8319 35.4114C32.8102 35.3889 32.788 35.3669 32.7655 35.3452L28.6838 31.3514C28.9372 31.2865 29.1839 31.2175 29.4238 31.1444C30.8263 30.7047 32.1596 30.0683 33.3837 29.2544Z" fill="white"/>
</svg>
