<svg width="50" height="50" viewBox="0 0 50 50" fill="none" xmlns="http://www.w3.org/2000/svg">
<path d="M25 50C38.8071 50 50 38.8071 50 25C50 11.1929 38.8071 0 25 0C11.1929 0 0 11.1929 0 25C0 38.8071 11.1929 50 25 50Z" fill="#4D76A1"/>
<path fill-rule="evenodd" clip-rule="evenodd" d="M24.0558 35.9645H26.018C26.018 35.9645 26.6107 35.8994 26.9133 35.5732C27.1918 35.2738 27.1829 34.7114 27.1829 34.7114C27.1829 34.7114 27.1446 32.0785 28.3666 31.6907C29.5712 31.3088 31.118 34.2354 32.7575 35.3607C33.9973 36.2123 34.9394 36.0256 34.9394 36.0256L39.3233 35.9645C39.3233 35.9645 41.6166 35.8232 40.5292 34.0201C40.4401 33.8726 39.8959 32.6863 37.2697 30.2486C34.521 27.6973 34.8891 28.11 38.2003 23.6967C40.2168 21.009 41.023 19.3681 40.7712 18.6653C40.531 17.996 39.0479 18.1729 39.0479 18.1729L34.1119 18.2036C34.1119 18.2036 33.746 18.1537 33.4746 18.316C33.2094 18.475 33.0387 18.8458 33.0387 18.8458C33.0387 18.8458 32.2575 20.9257 31.2156 22.6944C29.0177 26.4268 28.1388 26.6237 27.7796 26.392C26.9441 25.8519 27.1526 24.2221 27.1526 23.0643C27.1526 19.4475 27.7012 17.9394 26.0844 17.549C25.5478 17.4193 25.153 17.3337 23.7808 17.3199C22.0196 17.3017 20.5289 17.3253 19.6849 17.7388C19.1234 18.0138 18.6902 18.6266 18.954 18.6618C19.2802 18.7054 20.0191 18.861 20.4108 19.3944C20.9167 20.0825 20.8988 21.628 20.8988 21.628C20.8988 21.628 21.1894 25.8857 20.2201 26.4147C19.5548 26.7775 18.6421 26.0368 16.6826 22.6508C15.6785 20.9163 14.9205 18.9991 14.9205 18.9991C14.9205 18.9991 14.7743 18.6408 14.5136 18.4492C14.1972 18.217 13.7551 18.143 13.7551 18.143L9.06464 18.1738C9.06464 18.1738 8.36051 18.1934 8.10204 18.4996C7.87208 18.7719 8.08377 19.3352 8.08377 19.3352C8.08377 19.3352 11.7559 27.9264 15.9138 32.2558C19.7263 36.2252 24.0558 35.9645 24.0558 35.9645Z" fill="white"/>
</svg>
