<svg width="23" height="22" viewBox="0 0 23 22" fill="none" xmlns="http://www.w3.org/2000/svg">
<path d="M15.8135 4.96326C15.8135 5.67061 16.389 6.24615 17.0967 6.24615C17.8041 6.24615 18.3796 5.67061 18.3796 4.96326C18.3796 4.25591 17.8041 3.68037 17.0967 3.68037C16.389 3.68037 15.8135 4.25591 15.8135 4.96326Z" fill="white"/>
<path fill-rule="evenodd" clip-rule="evenodd" d="M6.0779 10.5472C6.0779 13.5372 8.51033 15.9696 11.5 15.9696C14.4896 15.9696 16.9224 13.5368 16.9224 10.5472C16.9224 7.55751 14.49 5.12508 11.5 5.12508C8.51033 5.12508 6.0779 7.55751 6.0779 10.5472ZM11.5 7.41642C9.7741 7.41642 8.36876 8.82098 8.36876 10.5468C8.36876 12.2735 9.7741 13.6784 11.5 13.6784C13.2266 13.6784 14.6308 12.2735 14.6308 10.5468C14.6308 8.82137 13.2262 7.41642 11.5 7.41642Z" fill="white"/>
<path fill-rule="evenodd" clip-rule="evenodd" d="M22.0268 15.763C22.0268 18.6918 19.6446 21.0739 16.7158 21.0739H6.2842C3.35577 21.0739 0.97325 18.6918 0.97325 15.763V5.33138C0.97325 2.40295 3.35577 0.0204329 6.2842 0.0204329H16.7158C19.6446 0.0204329 22.0268 2.40295 22.0268 5.33138V15.763ZM16.7158 2.31169H6.28417C4.61914 2.31169 3.2645 3.66633 3.2645 5.33136V15.763C3.2645 17.428 4.61914 18.783 6.28417 18.783H16.7158C18.3808 18.783 19.7358 17.4284 19.7358 15.763V5.33136C19.7358 3.66633 18.3812 2.31169 16.7158 2.31169Z" fill="white"/>
</svg>
