<svg width="25" height="25" viewBox="0 0 25 25" fill="none" xmlns="http://www.w3.org/2000/svg">
<path fill-rule="evenodd" clip-rule="evenodd" d="M18.4131 0H6.58687C5.7042 0 4.98608 0.718115 4.98608 1.60078V23.3992C4.98608 24.2818 5.7042 24.9999 6.58687 24.9999H18.4131C19.2958 24.9999 20.0139 24.2818 20.0139 23.3992V1.60078C20.0139 0.718115 19.2958 0 18.4131 0ZM12.5003 20.4166C11.7355 20.4166 11.1134 21.0387 11.1134 21.8034C11.1134 22.5682 11.7355 23.1903 12.5003 23.1903C13.265 23.1903 13.8871 22.5682 13.8871 21.8034C13.8871 21.0387 13.265 20.4166 12.5003 20.4166ZM12.5003 22.2298C12.2651 22.2298 12.0738 22.0385 12.0738 21.8034C12.0738 21.5683 12.2651 21.377 12.5003 21.377C12.7354 21.377 12.9267 21.5683 12.9267 21.8034C12.9266 22.0385 12.7353 22.2298 12.5003 22.2298ZM12.3137 1.9751H14.7748C15.0547 1.9751 15.2817 2.20205 15.2817 2.48203C15.2817 2.76201 15.0547 2.98896 14.7748 2.98896H12.3137C12.0337 2.98896 11.8067 2.76201 11.8067 2.48203C11.8067 2.20205 12.0337 1.9751 12.3137 1.9751ZM10.7575 3.02661C11.0514 3.02661 11.2897 2.78835 11.2897 2.49443C11.2897 2.20052 11.0514 1.96226 10.7575 1.96226C10.4636 1.96226 10.2253 2.20052 10.2253 2.49443C10.2253 2.78835 10.4636 3.02661 10.7575 3.02661ZM7.64829 3.94961H17.3519C17.6171 3.94961 17.8321 4.16465 17.8321 4.42983V19.1405C17.8321 19.4058 17.6171 19.6208 17.3519 19.6208H7.64829C7.38306 19.6208 7.16807 19.4058 7.16807 19.1405V4.42983C7.16807 4.1646 7.38306 3.94961 7.64829 3.94961Z" fill="white"/>
<path d="M13.3994 10.0198C13.191 9.81151 12.8532 9.81151 12.6447 10.0198L10.0815 12.583C9.8732 12.7914 9.8732 13.1293 10.0816 13.3377C10.1858 13.4419 10.3224 13.494 10.4589 13.494C10.5954 13.494 10.732 13.4419 10.8362 13.3377L13.3994 10.7745C13.6078 10.5661 13.6078 10.2282 13.3994 10.0198Z" fill="white"/>
<path d="M14.9186 11.5051C14.7102 11.2968 14.3724 11.2968 14.1639 11.5051L13.1428 12.5262C12.9345 12.7345 12.9345 13.0724 13.1428 13.2809C13.247 13.385 13.3836 13.4372 13.5201 13.4372C13.6567 13.4372 13.7932 13.385 13.8974 13.2809L14.9185 12.2598C15.127 12.0514 15.127 11.7135 14.9186 11.5051Z" fill="white"/>
</svg>
