<svg width="25" height="25" viewBox="0 0 25 25" fill="none" xmlns="http://www.w3.org/2000/svg">
<path d="M23.4375 6.64265H18.4938C18.8484 6.38398 19.1531 6.12698 19.3656 5.89667C20.625 4.54324 20.625 2.34035 19.3656 0.986916C18.1422 -0.328138 16.0078 -0.329806 14.7828 0.986916C14.1063 1.71287 12.3078 4.6684 12.5563 6.64265H12.4438C12.6906 4.6684 10.8938 1.71287 10.2172 0.986916C8.99219 -0.329806 6.85781 -0.328138 5.63438 0.986916C4.375 2.34035 4.375 4.54324 5.63281 5.89667C5.84688 6.12698 6.15156 6.38398 6.50625 6.64265H1.5625C0.701563 6.64265 0 7.39196 0 8.3115V12.4836C0 12.9442 0.35 13.318 0.78125 13.318H1.5625V23.3312C1.5625 24.2507 2.26406 25 3.125 25H21.875C22.7359 25 23.4375 24.2507 23.4375 23.3312V13.318H24.2188C24.65 13.318 25 12.9442 25 12.4836V8.3115C25 7.39196 24.2984 6.64265 23.4375 6.64265ZM6.74219 2.16346C7.05938 1.82301 7.47969 1.6361 7.92656 1.6361C8.37187 1.6361 8.79219 1.82301 9.10938 2.16346C10.1625 3.29494 11.2094 6.18538 10.8453 6.58758C10.8453 6.58758 10.7797 6.64265 10.5562 6.64265C9.47656 6.64265 7.41563 5.44442 6.74219 4.72013C6.0875 4.01588 6.0875 2.86771 6.74219 2.16346ZM11.7188 23.3312H3.125V13.318H11.7188V23.3312ZM11.7188 11.6492H1.5625V8.3115H10.5562H11.7188V11.6492ZM15.8906 2.16346C16.525 1.48423 17.625 1.4859 18.2578 2.16346C18.9125 2.86771 18.9125 4.01588 18.2578 4.72013C17.5844 5.44442 15.5234 6.64265 14.4438 6.64265C14.2203 6.64265 14.1547 6.58925 14.1531 6.58758C13.7906 6.18538 14.8375 3.29494 15.8906 2.16346ZM21.875 23.3312H13.2812V13.318H21.875V23.3312ZM23.4375 11.6492H13.2812V8.3115H14.4438H23.4375V11.6492Z" fill="white"/>
</svg>
