<svg width="22" height="18" viewBox="0 0 22 18" fill="none" xmlns="http://www.w3.org/2000/svg">
<path d="M21.2193 2.5766C20.4694 2.90914 19.6627 3.13406 18.8167 3.23451C19.6805 2.71698 20.3434 1.89811 20.6563 0.920763C19.848 1.40023 18.9524 1.74806 18 1.93554C17.237 1.12291 16.1498 0.615051 14.946 0.615051C12.6363 0.615051 10.763 2.48832 10.763 4.79801C10.763 5.12587 10.8002 5.44499 10.8719 5.75133C7.39552 5.57695 4.31313 3.91175 2.24988 1.38027C1.88989 1.99793 1.68337 2.71698 1.68337 3.48344C1.68337 4.93433 2.42239 6.2152 3.54416 6.96513C2.85881 6.94361 2.21338 6.7555 1.64968 6.44136C1.64937 6.45915 1.64937 6.47693 1.64937 6.4944C1.64937 8.52114 3.09184 10.2116 5.00503 10.5956C4.6544 10.6917 4.28411 10.7425 3.90322 10.7425C3.63307 10.7425 3.37134 10.7167 3.11617 10.668C3.64836 12.3294 5.19283 13.5389 7.02367 13.5729C5.59181 14.695 3.78842 15.3635 1.82812 15.3635C1.49121 15.3635 1.15742 15.3438 0.830811 15.3048C2.681 16.4921 4.88025 17.1843 7.24235 17.1843C14.9363 17.1843 19.1439 10.8106 19.1439 5.28247C19.1439 5.10122 19.1399 4.9206 19.1318 4.74154C19.9497 4.15195 20.6588 3.41544 21.2193 2.5766Z" fill="#F1F2F2"/>
</svg>
