<svg width="24" height="14" viewBox="0 0 24 14" fill="none" xmlns="http://www.w3.org/2000/svg">
<path fill-rule="evenodd" clip-rule="evenodd" d="M11.8391 13.1752H13.2126C13.2126 13.1752 13.6275 13.1297 13.8393 12.9013C14.0343 12.6917 14.0281 12.298 14.0281 12.298C14.0281 12.298 14.0012 10.455 14.8566 10.1836C15.6998 9.91624 16.7826 11.9648 17.9303 12.7525C18.7982 13.3487 19.4576 13.218 19.4576 13.218L22.5263 13.1752C22.5263 13.1752 24.1316 13.0763 23.3705 11.8142C23.3081 11.7109 22.9272 10.8805 21.0888 9.1741C19.1647 7.38817 19.4224 7.67704 21.7402 4.58776C23.1518 2.70637 23.7161 1.55775 23.5399 1.0658C23.3717 0.597245 22.3335 0.721091 22.3335 0.721091L18.8783 0.742616C18.8783 0.742616 18.6222 0.707677 18.4322 0.821228C18.2466 0.932596 18.1271 1.19214 18.1271 1.19214C18.1271 1.19214 17.5803 2.64803 16.8509 3.88617C15.3124 6.49879 14.6972 6.63667 14.4458 6.47446C13.8609 6.09637 14.0069 4.95555 14.0069 4.1451C14.0069 1.61328 14.3909 0.557628 13.2591 0.284357C12.8835 0.193578 12.6071 0.133683 11.6466 0.124012C10.4138 0.111222 9.37029 0.127755 8.77945 0.417248C8.38639 0.609724 8.08317 1.03866 8.26784 1.0633C8.49619 1.09388 9.01341 1.20275 9.28762 1.57616C9.64169 2.05781 9.62921 3.13967 9.62921 3.13967C9.62921 3.13967 9.8326 6.12008 9.1541 6.49037C8.68836 6.7443 8.04947 6.22583 6.67781 3.8556C5.97498 2.64148 5.44435 1.29945 5.44435 1.29945C5.44435 1.29945 5.34203 1.04864 5.15953 0.914502C4.93805 0.751974 4.62859 0.700191 4.62859 0.700191L1.34527 0.721715C1.34527 0.721715 0.852384 0.735442 0.67145 0.949754C0.510482 1.14036 0.65866 1.53467 0.65866 1.53467C0.65866 1.53467 3.22916 7.54851 6.13969 10.5791C8.80846 13.3577 11.8391 13.1752 11.8391 13.1752Z" fill="white"/>
</svg>
